<?xml version="1.0" encoding="UTF-8" standalone="no"?>
<!DOCTYPE svg PUBLIC "-//W3C//DTD SVG 1.1//EN"
 "http://www.w3.org/Graphics/SVG/1.1/DTD/svg11.dtd">
<!-- Generated by graphviz version 8.1.0 (20230707.0739)
 -->
<!-- Title: ast Pages: 1 -->
<svg width="637pt" height="714pt"
 viewBox="0.00 0.00 637.00 713.95" xmlns="http://www.w3.org/2000/svg" xmlns:xlink="http://www.w3.org/1999/xlink">
<g id="graph0" class="graph" transform="scale(1 1) rotate(0) translate(4 709.95)">
<title>ast</title>
<polygon fill="white" stroke="none" points="-4,4 -4,-709.95 633,-709.95 633,4 -4,4"/>
<!-- %3 -->
<g id="node1" class="node">
<title>%3</title>
<ellipse fill="none" stroke="black" cx="267" cy="-687.95" rx="42.65" ry="18"/>
<text text-anchor="middle" x="267" y="-682.9" font-family="Times,serif" font-size="14.00">program</text>
</g>
<!-- %5 -->
<g id="node2" class="node">
<title>%5</title>
<ellipse fill="none" stroke="black" cx="193" cy="-603.96" rx="65.41" ry="28.99"/>
<text text-anchor="middle" x="193" y="-607.16" font-family="Times,serif" font-size="14.00">FuncDefNode</text>
<text text-anchor="middle" x="193" y="-590.66" font-family="Times,serif" font-size="14.00">test</text>
</g>
<!-- %3&#45;&gt;%5 -->
<g id="edge1" class="edge">
<title>%5&#45;&gt;%5</title>
<path fill="none" stroke="black" d="M252.38,-670.75C244.26,-661.75 233.83,-650.2 223.99,-639.29"/>
<polygon fill="black" stroke="black" points="226.92,-637.21 217.62,-632.13 221.72,-641.9 226.92,-637.21"/>
</g>
<!-- %9 -->
<g id="node3" class="node">
<title>%9</title>
<ellipse fill="none" stroke="black" cx="343" cy="-603.96" rx="67" ry="28.99"/>
<text text-anchor="middle" x="343" y="-607.16" font-family="Times,serif" font-size="14.00">FuncCallNode</text>
<text text-anchor="middle" x="343" y="-590.66" font-family="Times,serif" font-size="14.00">test</text>
</g>
<!-- %3&#45;&gt;%9 -->
<g id="edge2" class="edge">
<title>%9&#45;&gt;%9</title>
<path fill="none" stroke="black" d="M282.02,-670.75C290.44,-661.66 301.28,-649.97 311.47,-638.97"/>
<polygon fill="black" stroke="black" points="313.51,-641.84 317.74,-632.13 308.38,-637.08 313.51,-641.84"/>
</g>
<!-- %13 -->
<g id="node4" class="node">
<title>%13</title>
<ellipse fill="none" stroke="black" cx="75" cy="-504.47" rx="45.21" ry="18"/>
<text text-anchor="middle" x="75" y="-499.42" font-family="Times,serif" font-size="14.00">ListNode</text>
</g>
<!-- %5&#45;&gt;%13 -->
<g id="edge3" class="edge">
<title>%13&#45;&gt;%13</title>
<path fill="none" stroke="black" d="M162.61,-577.85C143.95,-562.43 120.25,-542.85 102.21,-527.94"/>
<polygon fill="black" stroke="black" points="104.79,-524.71 94.85,-521.04 100.33,-530.11 104.79,-524.71"/>
<text text-anchor="middle" x="153.88" y="-543.67" font-family="Times,serif" font-size="14.00">params</text>
</g>
<!-- %17 -->
<g id="node5" class="node">
<title>%17</title>
<ellipse fill="none" stroke="black" cx="234" cy="-504.47" rx="48.28" ry="18"/>
<text text-anchor="middle" x="234" y="-499.42" font-family="Times,serif" font-size="14.00">ProgNode</text>
</g>
<!-- %5&#45;&gt;%17 -->
<g id="edge4" class="edge">
<title>%17&#45;&gt;%17</title>
<path fill="none" stroke="black" d="M204.75,-575.02C210.35,-561.7 217.02,-545.83 222.58,-532.61"/>
<polygon fill="black" stroke="black" points="226.11,-534.26 226.76,-523.68 219.66,-531.54 226.11,-534.26"/>
<text text-anchor="middle" x="232.5" y="-543.67" font-family="Times,serif" font-size="14.00">body</text>
</g>
<!-- %97 -->
<g id="node25" class="node">
<title>%97</title>
<ellipse fill="none" stroke="black" cx="343" cy="-504.47" rx="27" ry="18"/>
<text text-anchor="middle" x="343" y="-499.42" font-family="Times,serif" font-size="14.00">0</text>
</g>
<!-- %9&#45;&gt;%97 -->
<g id="edge24" class="edge">
<title>%97&#45;&gt;%97</title>
<path fill="none" stroke="black" d="M343,-574.5C343,-561.67 343,-546.57 343,-533.77"/>
<polygon fill="black" stroke="black" points="346.5,-533.79 343,-523.79 339.5,-533.79 346.5,-533.79"/>
<text text-anchor="middle" x="351.62" y="-543.67" font-family="Times,serif" font-size="14.00">arg</text>
</g>
<!-- %21 -->
<g id="node6" class="node">
<title>%21</title>
<ellipse fill="none" stroke="black" cx="27" cy="-415.97" rx="27" ry="18"/>
<text text-anchor="middle" x="27" y="-410.92" font-family="Times,serif" font-size="14.00">x</text>
</g>
<!-- %13&#45;&gt;%21 -->
<g id="edge5" class="edge">
<title>%21&#45;&gt;%21</title>
<path fill="none" stroke="black" d="M65.52,-486.38C58.55,-473.81 48.96,-456.54 41.09,-442.36"/>
<polygon fill="black" stroke="black" points="43.89,-441.19 35.98,-434.14 37.77,-444.58 43.89,-441.19"/>
</g>
<!-- %25 -->
<g id="node7" class="node">
<title>%25</title>
<ellipse fill="none" stroke="black" cx="117" cy="-415.97" rx="45.21" ry="18"/>
<text text-anchor="middle" x="117" y="-410.92" font-family="Times,serif" font-size="14.00">ListNode</text>
</g>
<!-- %17&#45;&gt;%25 -->
<g id="edge6" class="edge">
<title>%25&#45;&gt;%25</title>
<path fill="none" stroke="black" d="M213.08,-488C194.53,-474.29 167.24,-454.11 146.47,-438.76"/>
<polygon fill="black" stroke="black" points="148.86,-435.43 138.74,-432.3 144.7,-441.06 148.86,-435.43"/>
<text text-anchor="middle" x="201.75" y="-455.17" font-family="Times,serif" font-size="14.00">locals</text>
</g>
<!-- %29 -->
<g id="node8" class="node">
<title>%29</title>
<ellipse fill="none" stroke="black" cx="234" cy="-415.97" rx="53.91" ry="18"/>
<text text-anchor="middle" x="234" y="-410.92" font-family="Times,serif" font-size="14.00">WhileNode</text>
</g>
<!-- %17&#45;&gt;%29 -->
<g id="edge7" class="edge">
<title>%29&#45;&gt;%29</title>
<path fill="none" stroke="black" d="M234,-486.38C234,-474.61 234,-458.69 234,-445.08"/>
<polygon fill="black" stroke="black" points="237.5,-445.32 234,-435.32 230.5,-445.32 237.5,-445.32"/>
</g>
<!-- %33 -->
<g id="node9" class="node">
<title>%33</title>
<ellipse fill="none" stroke="black" cx="360" cy="-415.97" rx="50.84" ry="18"/>
<text text-anchor="middle" x="360" y="-410.92" font-family="Times,serif" font-size="14.00">CondNode</text>
</g>
<!-- %17&#45;&gt;%33 -->
<g id="edge8" class="edge">
<title>%33&#45;&gt;%33</title>
<path fill="none" stroke="black" d="M256.24,-488.2C276.35,-474.39 306.19,-453.91 328.71,-438.44"/>
<polygon fill="black" stroke="black" points="330.3,-440.91 336.56,-432.37 326.34,-435.14 330.3,-440.91"/>
</g>
<!-- %37 -->
<g id="node10" class="node">
<title>%37</title>
<ellipse fill="none" stroke="black" cx="544" cy="-415.97" rx="55.96" ry="18"/>
<text text-anchor="middle" x="544" y="-410.92" font-family="Times,serif" font-size="14.00">ReturnNode</text>
</g>
<!-- %17&#45;&gt;%37 -->
<g id="edge9" class="edge">
<title>%37&#45;&gt;%37</title>
<path fill="none" stroke="black" d="M271.7,-492.95C326.92,-477.54 429.96,-448.78 492.24,-431.41"/>
<polygon fill="black" stroke="black" points="492.93,-434.57 501.62,-428.51 491.05,-427.83 492.93,-434.57"/>
</g>
<!-- %41 -->
<g id="node11" class="node">
<title>%41</title>
<ellipse fill="none" stroke="black" cx="134" cy="-316.47" rx="27" ry="18"/>
<text text-anchor="middle" x="134" y="-311.42" font-family="Times,serif" font-size="14.00">true</text>
</g>
<!-- %29&#45;&gt;%41 -->
<g id="edge10" class="edge">
<title>%41&#45;&gt;%41</title>
<path fill="none" stroke="black" d="M217.04,-398.43C200.41,-382.22 174.97,-357.42 156.63,-339.54"/>
<polygon fill="black" stroke="black" points="159.37,-337.34 149.76,-332.87 154.48,-342.35 159.37,-337.34"/>
<text text-anchor="middle" x="209.12" y="-366.67" font-family="Times,serif" font-size="14.00">cond</text>
</g>
<!-- %45 -->
<g id="node12" class="node">
<title>%45</title>
<ellipse fill="none" stroke="black" cx="227" cy="-316.47" rx="48.28" ry="18"/>
<text text-anchor="middle" x="227" y="-311.42" font-family="Times,serif" font-size="14.00">ProgNode</text>
</g>
<!-- %29&#45;&gt;%45 -->
<g id="edge11" class="edge">
<title>%45&#45;&gt;%45</title>
<path fill="none" stroke="black" d="M232.75,-397.54C231.71,-383.12 230.22,-362.36 229.02,-345.6"/>
<polygon fill="black" stroke="black" points="232.45,-345.48 228.24,-335.75 225.47,-345.98 232.45,-345.48"/>
<text text-anchor="middle" x="245.5" y="-366.67" font-family="Times,serif" font-size="14.00">body</text>
</g>
<!-- %73 -->
<g id="node19" class="node">
<title>%73</title>
<ellipse fill="none" stroke="black" cx="360" cy="-316.47" rx="67" ry="28.99"/>
<text text-anchor="middle" x="360" y="-319.67" font-family="Times,serif" font-size="14.00">FuncCallNode</text>
<text text-anchor="middle" x="360" y="-303.17" font-family="Times,serif" font-size="14.00">equal</text>
</g>
<!-- %33&#45;&gt;%73 -->
<g id="edge18" class="edge">
<title>%73&#45;&gt;%73</title>
<path fill="none" stroke="black" d="M360,-397.54C360,-386.1 360,-370.68 360,-356.42"/>
<polygon fill="black" stroke="black" points="363.5,-356.83 360,-346.83 356.5,-356.83 363.5,-356.83"/>
<text text-anchor="middle" x="373.12" y="-366.67" font-family="Times,serif" font-size="14.00">cond</text>
</g>
<!-- %77 -->
<g id="node20" class="node">
<title>%77</title>
<ellipse fill="none" stroke="black" cx="501" cy="-316.47" rx="55.96" ry="18"/>
<text text-anchor="middle" x="501" y="-311.42" font-family="Times,serif" font-size="14.00">ReturnNode</text>
</g>
<!-- %33&#45;&gt;%77 -->
<g id="edge19" class="edge">
<title>%77&#45;&gt;%77</title>
<path fill="none" stroke="black" d="M382.34,-399.52C405.82,-383.28 442.95,-357.61 469.42,-339.31"/>
<polygon fill="black" stroke="black" points="471.06,-341.74 477.3,-333.17 467.08,-335.98 471.06,-341.74"/>
<text text-anchor="middle" x="457.38" y="-366.67" font-family="Times,serif" font-size="14.00">body_true</text>
</g>
<!-- %93 -->
<g id="node24" class="node">
<title>%93</title>
<ellipse fill="none" stroke="black" cx="602" cy="-316.47" rx="27" ry="18"/>
<text text-anchor="middle" x="602" y="-311.42" font-family="Times,serif" font-size="14.00">1</text>
</g>
<!-- %37&#45;&gt;%93 -->
<g id="edge23" class="edge">
<title>%93&#45;&gt;%93</title>
<path fill="none" stroke="black" d="M554.1,-397.98C563.19,-382.7 576.68,-360.04 587.02,-342.65"/>
<polygon fill="black" stroke="black" points="590.29,-345 592.4,-334.61 584.28,-341.42 590.29,-345"/>
<text text-anchor="middle" x="587.62" y="-366.67" font-family="Times,serif" font-size="14.00">value</text>
</g>
<!-- %49 -->
<g id="node13" class="node">
<title>%49</title>
<ellipse fill="none" stroke="black" cx="122" cy="-216.98" rx="45.21" ry="18"/>
<text text-anchor="middle" x="122" y="-211.93" font-family="Times,serif" font-size="14.00">ListNode</text>
</g>
<!-- %45&#45;&gt;%49 -->
<g id="edge12" class="edge">
<title>%49&#45;&gt;%49</title>
<path fill="none" stroke="black" d="M209.66,-299.38C192.54,-283.48 166.17,-259 146.83,-241.04"/>
<polygon fill="black" stroke="black" points="149.73,-239.02 140.02,-234.78 144.96,-244.15 149.73,-239.02"/>
<text text-anchor="middle" x="190.75" y="-256.18" font-family="Times,serif" font-size="14.00">locals</text>
</g>
<!-- %53 -->
<g id="node14" class="node">
<title>%53</title>
<ellipse fill="none" stroke="black" cx="236" cy="-216.98" rx="50.84" ry="18"/>
<text text-anchor="middle" x="236" y="-211.93" font-family="Times,serif" font-size="14.00">CondNode</text>
</g>
<!-- %45&#45;&gt;%53 -->
<g id="edge13" class="edge">
<title>%53&#45;&gt;%53</title>
<path fill="none" stroke="black" d="M228.61,-298.04C229.94,-283.63 231.86,-262.87 233.4,-246.1"/>
<polygon fill="black" stroke="black" points="236.97,-246.54 234.4,-236.26 230,-245.9 236.97,-246.54"/>
</g>
<!-- %57 -->
<g id="node15" class="node">
<title>%57</title>
<ellipse fill="none" stroke="black" cx="161" cy="-117.49" rx="67" ry="28.99"/>
<text text-anchor="middle" x="161" y="-120.69" font-family="Times,serif" font-size="14.00">FuncCallNode</text>
<text text-anchor="middle" x="161" y="-104.19" font-family="Times,serif" font-size="14.00">equal</text>
</g>
<!-- %53&#45;&gt;%57 -->
<g id="edge14" class="edge">
<title>%57&#45;&gt;%57</title>
<path fill="none" stroke="black" d="M223.28,-199.44C213.69,-186.98 200.18,-169.42 188.2,-153.84"/>
<polygon fill="black" stroke="black" points="190.6,-152.23 181.73,-146.44 185.05,-156.5 190.6,-152.23"/>
<text text-anchor="middle" x="221.12" y="-167.68" font-family="Times,serif" font-size="14.00">cond</text>
</g>
<!-- %61 -->
<g id="node16" class="node">
<title>%61</title>
<ellipse fill="none" stroke="black" cx="277" cy="-117.49" rx="31.39" ry="18"/>
<text text-anchor="middle" x="277" y="-112.44" font-family="Times,serif" font-size="14.00">break</text>
</g>
<!-- %53&#45;&gt;%61 -->
<g id="edge15" class="edge">
<title>%61&#45;&gt;%61</title>
<path fill="none" stroke="black" d="M243.14,-199C249.37,-184.18 258.52,-162.43 265.74,-145.27"/>
<polygon fill="black" stroke="black" points="269.29,-146.85 269.94,-136.28 262.84,-144.14 269.29,-146.85"/>
<text text-anchor="middle" x="284.38" y="-167.68" font-family="Times,serif" font-size="14.00">body_true</text>
</g>
<!-- %65 -->
<g id="node17" class="node">
<title>%65</title>
<ellipse fill="none" stroke="black" cx="125" cy="-18" rx="27" ry="18"/>
<text text-anchor="middle" x="125" y="-12.95" font-family="Times,serif" font-size="14.00">x</text>
</g>
<!-- %57&#45;&gt;%65 -->
<g id="edge16" class="edge">
<title>%65&#45;&gt;%65</title>
<path fill="none" stroke="black" d="M150.68,-88.55C145.73,-75.15 139.83,-59.15 134.93,-45.88"/>
<polygon fill="black" stroke="black" points="138,-45.1 131.25,-36.93 131.43,-47.52 138,-45.1"/>
<text text-anchor="middle" x="151.62" y="-57.2" font-family="Times,serif" font-size="14.00">arg</text>
</g>
<!-- %69 -->
<g id="node18" class="node">
<title>%69</title>
<ellipse fill="none" stroke="black" cx="197" cy="-18" rx="27" ry="18"/>
<text text-anchor="middle" x="197" y="-12.95" font-family="Times,serif" font-size="14.00">0</text>
</g>
<!-- %57&#45;&gt;%69 -->
<g id="edge17" class="edge">
<title>%69&#45;&gt;%69</title>
<path fill="none" stroke="black" d="M171.32,-88.55C176.27,-75.15 182.17,-59.15 187.07,-45.88"/>
<polygon fill="black" stroke="black" points="190.57,-47.52 190.75,-36.93 184,-45.1 190.57,-47.52"/>
<text text-anchor="middle" x="192.62" y="-57.2" font-family="Times,serif" font-size="14.00">arg</text>
</g>
<!-- %81 -->
<g id="node21" class="node">
<title>%81</title>
<ellipse fill="none" stroke="black" cx="349" cy="-216.98" rx="27" ry="18"/>
<text text-anchor="middle" x="349" y="-211.93" font-family="Times,serif" font-size="14.00">x</text>
</g>
<!-- %73&#45;&gt;%81 -->
<g id="edge20" class="edge">
<title>%81&#45;&gt;%81</title>
<path fill="none" stroke="black" d="M356.82,-287.28C355.36,-274.31 353.63,-258.98 352.17,-246.04"/>
<polygon fill="black" stroke="black" points="355.56,-245.94 350.96,-236.4 348.61,-246.73 355.56,-245.94"/>
<text text-anchor="middle" x="362.62" y="-256.18" font-family="Times,serif" font-size="14.00">arg</text>
</g>
<!-- %85 -->
<g id="node22" class="node">
<title>%85</title>
<ellipse fill="none" stroke="black" cx="421" cy="-216.98" rx="27" ry="18"/>
<text text-anchor="middle" x="421" y="-211.93" font-family="Times,serif" font-size="14.00">0</text>
</g>
<!-- %73&#45;&gt;%85 -->
<g id="edge21" class="edge">
<title>%85&#45;&gt;%85</title>
<path fill="none" stroke="black" d="M377.15,-288.06C386.03,-273.87 396.78,-256.69 405.42,-242.88"/>
<polygon fill="black" stroke="black" points="408.67,-245.28 411.01,-234.95 402.74,-241.57 408.67,-245.28"/>
<text text-anchor="middle" x="405.62" y="-256.18" font-family="Times,serif" font-size="14.00">arg</text>
</g>
<!-- %89 -->
<g id="node23" class="node">
<title>%89</title>
<ellipse fill="none" stroke="black" cx="501" cy="-216.98" rx="27" ry="18"/>
<text text-anchor="middle" x="501" y="-211.93" font-family="Times,serif" font-size="14.00">0</text>
</g>
<!-- %77&#45;&gt;%89 -->
<g id="edge22" class="edge">
<title>%89&#45;&gt;%89</title>
<path fill="none" stroke="black" d="M501,-298.04C501,-283.63 501,-262.87 501,-246.1"/>
<polygon fill="black" stroke="black" points="504.5,-246.26 501,-236.26 497.5,-246.26 504.5,-246.26"/>
<text text-anchor="middle" x="515.62" y="-256.18" font-family="Times,serif" font-size="14.00">value</text>
</g>
</g>
</svg>
