<?xml version="1.0" encoding="UTF-8" standalone="no"?>
<!DOCTYPE svg PUBLIC "-//W3C//DTD SVG 1.1//EN"
 "http://www.w3.org/Graphics/SVG/1.1/DTD/svg11.dtd">
<!-- Generated by graphviz version 8.1.0 (20230707.0739)
 -->
<!-- Title: ast Pages: 1 -->
<svg width="1296pt" height="736pt"
 viewBox="0.00 0.00 1296.00 735.93" xmlns="http://www.w3.org/2000/svg" xmlns:xlink="http://www.w3.org/1999/xlink">
<g id="graph0" class="graph" transform="scale(1 1) rotate(0) translate(4 731.93)">
<title>ast</title>
<polygon fill="white" stroke="none" points="-4,4 -4,-731.93 1292,-731.93 1292,4 -4,4"/>
<!-- %3 -->
<g id="node1" class="node">
<title>%3</title>
<ellipse fill="none" stroke="black" cx="396" cy="-709.93" rx="42.65" ry="18"/>
<text text-anchor="middle" x="396" y="-704.88" font-family="Times,serif" font-size="14.00">program</text>
</g>
<!-- %5 -->
<g id="node2" class="node">
<title>%5</title>
<ellipse fill="none" stroke="black" cx="271" cy="-625.94" rx="65.41" ry="28.99"/>
<text text-anchor="middle" x="271" y="-629.14" font-family="Times,serif" font-size="14.00">FuncDefNode</text>
<text text-anchor="middle" x="271" y="-612.64" font-family="Times,serif" font-size="14.00">test</text>
</g>
<!-- %3&#45;&gt;%5 -->
<g id="edge1" class="edge">
<title>%5&#45;&gt;%5</title>
<path fill="none" stroke="black" d="M373.65,-694.27C357.65,-683.77 335.55,-669.28 315.96,-656.43"/>
<polygon fill="black" stroke="black" points="318.15,-653.03 307.87,-650.47 314.31,-658.88 318.15,-653.03"/>
</g>
<!-- %9 -->
<g id="node3" class="node">
<title>%9</title>
<ellipse fill="none" stroke="black" cx="622" cy="-625.94" rx="50.03" ry="28.99"/>
<text text-anchor="middle" x="622" y="-629.14" font-family="Times,serif" font-size="14.00">ProgNode</text>
<text text-anchor="middle" x="622" y="-612.64" font-family="Times,serif" font-size="14.00">inlined</text>
</g>
<!-- %3&#45;&gt;%9 -->
<g id="edge2" class="edge">
<title>%9&#45;&gt;%9</title>
<path fill="none" stroke="black" d="M427.42,-697.53C464.25,-684.17 525.84,-661.83 569.86,-645.86"/>
<polygon fill="black" stroke="black" points="570.88,-648.85 579.09,-642.15 568.49,-642.27 570.88,-648.85"/>
</g>
<!-- %13 -->
<g id="node4" class="node">
<title>%13</title>
<ellipse fill="none" stroke="black" cx="75" cy="-515.46" rx="45.21" ry="18"/>
<text text-anchor="middle" x="75" y="-510.41" font-family="Times,serif" font-size="14.00">ListNode</text>
</g>
<!-- %5&#45;&gt;%13 -->
<g id="edge3" class="edge">
<title>%13&#45;&gt;%13</title>
<path fill="none" stroke="black" d="M230.86,-602.72C195.39,-583.09 144.16,-554.73 110.24,-535.96"/>
<polygon fill="black" stroke="black" points="112.18,-532.48 101.73,-530.7 108.79,-538.6 112.18,-532.48"/>
<text text-anchor="middle" x="204.88" y="-565.65" font-family="Times,serif" font-size="14.00">params</text>
</g>
<!-- %17 -->
<g id="node5" class="node">
<title>%17</title>
<ellipse fill="none" stroke="black" cx="271" cy="-515.46" rx="48.28" ry="18"/>
<text text-anchor="middle" x="271" y="-510.41" font-family="Times,serif" font-size="14.00">ProgNode</text>
</g>
<!-- %5&#45;&gt;%17 -->
<g id="edge4" class="edge">
<title>%17&#45;&gt;%17</title>
<path fill="none" stroke="black" d="M271,-596.72C271,-580.66 271,-560.6 271,-544.56"/>
<polygon fill="black" stroke="black" points="274.5,-544.7 271,-534.7 267.5,-544.7 274.5,-544.7"/>
<text text-anchor="middle" x="284.5" y="-565.65" font-family="Times,serif" font-size="14.00">body</text>
</g>
<!-- %97 -->
<g id="node25" class="node">
<title>%97</title>
<ellipse fill="none" stroke="black" cx="583" cy="-515.46" rx="45.21" ry="18"/>
<text text-anchor="middle" x="583" y="-510.41" font-family="Times,serif" font-size="14.00">ListNode</text>
</g>
<!-- %9&#45;&gt;%97 -->
<g id="edge24" class="edge">
<title>%97&#45;&gt;%97</title>
<path fill="none" stroke="black" d="M612.06,-597.28C606.13,-580.81 598.65,-559.98 592.76,-543.59"/>
<polygon fill="black" stroke="black" points="595.82,-542.78 589.15,-534.56 589.24,-545.15 595.82,-542.78"/>
<text text-anchor="middle" x="620.75" y="-565.65" font-family="Times,serif" font-size="14.00">locals</text>
</g>
<!-- %101 -->
<g id="node26" class="node">
<title>%101</title>
<ellipse fill="none" stroke="black" cx="695" cy="-515.46" rx="48.97" ry="28.99"/>
<text text-anchor="middle" x="695" y="-518.66" font-family="Times,serif" font-size="14.00">SetqNode</text>
<text text-anchor="middle" x="695" y="-502.16" font-family="Times,serif" font-size="14.00">_tmp1</text>
</g>
<!-- %9&#45;&gt;%101 -->
<g id="edge25" class="edge">
<title>%101&#45;&gt;%101</title>
<path fill="none" stroke="black" d="M639.86,-598.4C649.3,-584.38 661.01,-566.97 671.21,-551.82"/>
<polygon fill="black" stroke="black" points="674.65,-553.97 677.33,-543.72 668.84,-550.06 674.65,-553.97"/>
</g>
<!-- %105 -->
<g id="node27" class="node">
<title>%105</title>
<ellipse fill="none" stroke="black" cx="894" cy="-515.46" rx="48.28" ry="18"/>
<text text-anchor="middle" x="894" y="-510.41" font-family="Times,serif" font-size="14.00">ProgNode</text>
</g>
<!-- %9&#45;&gt;%105 -->
<g id="edge26" class="edge">
<title>%105&#45;&gt;%105</title>
<path fill="none" stroke="black" d="M662.72,-608.7C713.61,-588.4 800.25,-553.85 851.81,-533.28"/>
<polygon fill="black" stroke="black" points="852.95,-536.2 860.94,-529.24 850.36,-529.7 852.95,-536.2"/>
</g>
<!-- %21 -->
<g id="node6" class="node">
<title>%21</title>
<ellipse fill="none" stroke="black" cx="27" cy="-415.97" rx="27" ry="18"/>
<text text-anchor="middle" x="27" y="-410.92" font-family="Times,serif" font-size="14.00">x</text>
</g>
<!-- %13&#45;&gt;%21 -->
<g id="edge5" class="edge">
<title>%21&#45;&gt;%21</title>
<path fill="none" stroke="black" d="M66.64,-497.48C59.23,-482.43 48.3,-460.22 39.79,-442.94"/>
<polygon fill="black" stroke="black" points="42.66,-441.85 35.11,-434.43 36.38,-444.95 42.66,-441.85"/>
</g>
<!-- %25 -->
<g id="node7" class="node">
<title>%25</title>
<ellipse fill="none" stroke="black" cx="117" cy="-415.97" rx="45.21" ry="18"/>
<text text-anchor="middle" x="117" y="-410.92" font-family="Times,serif" font-size="14.00">ListNode</text>
</g>
<!-- %17&#45;&gt;%25 -->
<g id="edge6" class="edge">
<title>%25&#45;&gt;%25</title>
<path fill="none" stroke="black" d="M247.27,-499.44C220.93,-482.76 178.28,-455.76 149,-437.22"/>
<polygon fill="black" stroke="black" points="151.32,-433.92 141,-431.52 147.57,-439.83 151.32,-433.92"/>
<text text-anchor="middle" x="209.75" y="-455.17" font-family="Times,serif" font-size="14.00">locals</text>
</g>
<!-- %29 -->
<g id="node8" class="node">
<title>%29</title>
<ellipse fill="none" stroke="black" cx="234" cy="-415.97" rx="53.91" ry="18"/>
<text text-anchor="middle" x="234" y="-410.92" font-family="Times,serif" font-size="14.00">WhileNode</text>
</g>
<!-- %17&#45;&gt;%29 -->
<g id="edge7" class="edge">
<title>%29&#45;&gt;%29</title>
<path fill="none" stroke="black" d="M264.56,-497.48C258.97,-482.75 250.78,-461.17 244.28,-444.06"/>
<polygon fill="black" stroke="black" points="247.32,-443.19 240.5,-435.08 240.77,-445.67 247.32,-443.19"/>
</g>
<!-- %33 -->
<g id="node9" class="node">
<title>%33</title>
<ellipse fill="none" stroke="black" cx="357" cy="-415.97" rx="50.84" ry="18"/>
<text text-anchor="middle" x="357" y="-410.92" font-family="Times,serif" font-size="14.00">CondNode</text>
</g>
<!-- %17&#45;&gt;%33 -->
<g id="edge8" class="edge">
<title>%33&#45;&gt;%33</title>
<path fill="none" stroke="black" d="M285.59,-497.92C299.18,-482.51 319.62,-459.34 335.16,-441.73"/>
<polygon fill="black" stroke="black" points="337.35,-444.4 341.34,-434.58 332.1,-439.77 337.35,-444.4"/>
</g>
<!-- %37 -->
<g id="node10" class="node">
<title>%37</title>
<ellipse fill="none" stroke="black" cx="482" cy="-415.97" rx="55.96" ry="18"/>
<text text-anchor="middle" x="482" y="-410.92" font-family="Times,serif" font-size="14.00">ReturnNode</text>
</g>
<!-- %17&#45;&gt;%37 -->
<g id="edge9" class="edge">
<title>%37&#45;&gt;%37</title>
<path fill="none" stroke="black" d="M300.34,-500.9C336.95,-483.98 399.77,-454.96 441.1,-435.87"/>
<polygon fill="black" stroke="black" points="442.24,-438.73 449.85,-431.36 439.31,-432.37 442.24,-438.73"/>
</g>
<!-- %41 -->
<g id="node11" class="node">
<title>%41</title>
<ellipse fill="none" stroke="black" cx="131" cy="-316.47" rx="27" ry="18"/>
<text text-anchor="middle" x="131" y="-311.42" font-family="Times,serif" font-size="14.00">true</text>
</g>
<!-- %29&#45;&gt;%41 -->
<g id="edge10" class="edge">
<title>%41&#45;&gt;%41</title>
<path fill="none" stroke="black" d="M216.99,-398.87C199.77,-382.57 173.03,-357.25 153.94,-339.18"/>
<polygon fill="black" stroke="black" points="156.69,-337.02 147.02,-332.69 151.88,-342.11 156.69,-337.02"/>
<text text-anchor="middle" x="208.12" y="-366.67" font-family="Times,serif" font-size="14.00">cond</text>
</g>
<!-- %45 -->
<g id="node12" class="node">
<title>%45</title>
<ellipse fill="none" stroke="black" cx="224" cy="-316.47" rx="48.28" ry="18"/>
<text text-anchor="middle" x="224" y="-311.42" font-family="Times,serif" font-size="14.00">ProgNode</text>
</g>
<!-- %29&#45;&gt;%45 -->
<g id="edge11" class="edge">
<title>%45&#45;&gt;%45</title>
<path fill="none" stroke="black" d="M232.21,-397.54C230.73,-383.12 228.6,-362.36 226.88,-345.6"/>
<polygon fill="black" stroke="black" points="230.27,-345.34 225.77,-335.75 223.31,-346.06 230.27,-345.34"/>
<text text-anchor="middle" x="244.5" y="-366.67" font-family="Times,serif" font-size="14.00">body</text>
</g>
<!-- %73 -->
<g id="node19" class="node">
<title>%73</title>
<ellipse fill="none" stroke="black" cx="357" cy="-316.47" rx="67" ry="28.99"/>
<text text-anchor="middle" x="357" y="-319.67" font-family="Times,serif" font-size="14.00">FuncCallNode</text>
<text text-anchor="middle" x="357" y="-303.17" font-family="Times,serif" font-size="14.00">equal</text>
</g>
<!-- %33&#45;&gt;%73 -->
<g id="edge18" class="edge">
<title>%73&#45;&gt;%73</title>
<path fill="none" stroke="black" d="M357,-397.54C357,-386.1 357,-370.68 357,-356.42"/>
<polygon fill="black" stroke="black" points="360.5,-356.83 357,-346.83 353.5,-356.83 360.5,-356.83"/>
<text text-anchor="middle" x="370.12" y="-366.67" font-family="Times,serif" font-size="14.00">cond</text>
</g>
<!-- %77 -->
<g id="node20" class="node">
<title>%77</title>
<ellipse fill="none" stroke="black" cx="498" cy="-316.47" rx="55.96" ry="18"/>
<text text-anchor="middle" x="498" y="-311.42" font-family="Times,serif" font-size="14.00">ReturnNode</text>
</g>
<!-- %33&#45;&gt;%77 -->
<g id="edge19" class="edge">
<title>%77&#45;&gt;%77</title>
<path fill="none" stroke="black" d="M379.34,-399.52C402.82,-383.28 439.95,-357.61 466.42,-339.31"/>
<polygon fill="black" stroke="black" points="468.06,-341.74 474.3,-333.17 464.08,-335.98 468.06,-341.74"/>
<text text-anchor="middle" x="455.38" y="-366.67" font-family="Times,serif" font-size="14.00">body_true</text>
</g>
<!-- %93 -->
<g id="node24" class="node">
<title>%93</title>
<ellipse fill="none" stroke="black" cx="599" cy="-316.47" rx="27" ry="18"/>
<text text-anchor="middle" x="599" y="-311.42" font-family="Times,serif" font-size="14.00">1</text>
</g>
<!-- %37&#45;&gt;%93 -->
<g id="edge23" class="edge">
<title>%93&#45;&gt;%93</title>
<path fill="none" stroke="black" d="M501.58,-398.65C521.59,-381.97 552.73,-356.03 574.39,-337.98"/>
<polygon fill="black" stroke="black" points="576.31,-340.1 581.75,-331.01 571.83,-334.73 576.31,-340.1"/>
<text text-anchor="middle" x="555.62" y="-366.67" font-family="Times,serif" font-size="14.00">value</text>
</g>
<!-- %49 -->
<g id="node13" class="node">
<title>%49</title>
<ellipse fill="none" stroke="black" cx="119" cy="-216.98" rx="45.21" ry="18"/>
<text text-anchor="middle" x="119" y="-211.93" font-family="Times,serif" font-size="14.00">ListNode</text>
</g>
<!-- %45&#45;&gt;%49 -->
<g id="edge12" class="edge">
<title>%49&#45;&gt;%49</title>
<path fill="none" stroke="black" d="M206.66,-299.38C189.54,-283.48 163.17,-259 143.83,-241.04"/>
<polygon fill="black" stroke="black" points="146.73,-239.02 137.02,-234.78 141.96,-244.15 146.73,-239.02"/>
<text text-anchor="middle" x="187.75" y="-256.18" font-family="Times,serif" font-size="14.00">locals</text>
</g>
<!-- %53 -->
<g id="node14" class="node">
<title>%53</title>
<ellipse fill="none" stroke="black" cx="233" cy="-216.98" rx="50.84" ry="18"/>
<text text-anchor="middle" x="233" y="-211.93" font-family="Times,serif" font-size="14.00">CondNode</text>
</g>
<!-- %45&#45;&gt;%53 -->
<g id="edge13" class="edge">
<title>%53&#45;&gt;%53</title>
<path fill="none" stroke="black" d="M225.61,-298.04C226.94,-283.63 228.86,-262.87 230.4,-246.1"/>
<polygon fill="black" stroke="black" points="233.97,-246.54 231.4,-236.26 227,-245.9 233.97,-246.54"/>
</g>
<!-- %57 -->
<g id="node15" class="node">
<title>%57</title>
<ellipse fill="none" stroke="black" cx="158" cy="-117.49" rx="67" ry="28.99"/>
<text text-anchor="middle" x="158" y="-120.69" font-family="Times,serif" font-size="14.00">FuncCallNode</text>
<text text-anchor="middle" x="158" y="-104.19" font-family="Times,serif" font-size="14.00">equal</text>
</g>
<!-- %53&#45;&gt;%57 -->
<g id="edge14" class="edge">
<title>%57&#45;&gt;%57</title>
<path fill="none" stroke="black" d="M220.28,-199.44C210.69,-186.98 197.18,-169.42 185.2,-153.84"/>
<polygon fill="black" stroke="black" points="187.6,-152.23 178.73,-146.44 182.05,-156.5 187.6,-152.23"/>
<text text-anchor="middle" x="218.12" y="-167.68" font-family="Times,serif" font-size="14.00">cond</text>
</g>
<!-- %61 -->
<g id="node16" class="node">
<title>%61</title>
<ellipse fill="none" stroke="black" cx="274" cy="-117.49" rx="31.39" ry="18"/>
<text text-anchor="middle" x="274" y="-112.44" font-family="Times,serif" font-size="14.00">break</text>
</g>
<!-- %53&#45;&gt;%61 -->
<g id="edge15" class="edge">
<title>%61&#45;&gt;%61</title>
<path fill="none" stroke="black" d="M240.14,-199C246.37,-184.18 255.52,-162.43 262.74,-145.27"/>
<polygon fill="black" stroke="black" points="266.29,-146.85 266.94,-136.28 259.84,-144.14 266.29,-146.85"/>
<text text-anchor="middle" x="281.38" y="-167.68" font-family="Times,serif" font-size="14.00">body_true</text>
</g>
<!-- %65 -->
<g id="node17" class="node">
<title>%65</title>
<ellipse fill="none" stroke="black" cx="122" cy="-18" rx="27" ry="18"/>
<text text-anchor="middle" x="122" y="-12.95" font-family="Times,serif" font-size="14.00">x</text>
</g>
<!-- %57&#45;&gt;%65 -->
<g id="edge16" class="edge">
<title>%65&#45;&gt;%65</title>
<path fill="none" stroke="black" d="M147.68,-88.55C142.73,-75.15 136.83,-59.15 131.93,-45.88"/>
<polygon fill="black" stroke="black" points="135,-45.1 128.25,-36.93 128.43,-47.52 135,-45.1"/>
<text text-anchor="middle" x="148.62" y="-57.2" font-family="Times,serif" font-size="14.00">arg</text>
</g>
<!-- %69 -->
<g id="node18" class="node">
<title>%69</title>
<ellipse fill="none" stroke="black" cx="194" cy="-18" rx="27" ry="18"/>
<text text-anchor="middle" x="194" y="-12.95" font-family="Times,serif" font-size="14.00">0</text>
</g>
<!-- %57&#45;&gt;%69 -->
<g id="edge17" class="edge">
<title>%69&#45;&gt;%69</title>
<path fill="none" stroke="black" d="M168.32,-88.55C173.27,-75.15 179.17,-59.15 184.07,-45.88"/>
<polygon fill="black" stroke="black" points="187.57,-47.52 187.75,-36.93 181,-45.1 187.57,-47.52"/>
<text text-anchor="middle" x="189.62" y="-57.2" font-family="Times,serif" font-size="14.00">arg</text>
</g>
<!-- %81 -->
<g id="node21" class="node">
<title>%81</title>
<ellipse fill="none" stroke="black" cx="346" cy="-216.98" rx="27" ry="18"/>
<text text-anchor="middle" x="346" y="-211.93" font-family="Times,serif" font-size="14.00">x</text>
</g>
<!-- %73&#45;&gt;%81 -->
<g id="edge20" class="edge">
<title>%81&#45;&gt;%81</title>
<path fill="none" stroke="black" d="M353.82,-287.28C352.36,-274.31 350.63,-258.98 349.17,-246.04"/>
<polygon fill="black" stroke="black" points="352.56,-245.94 347.96,-236.4 345.61,-246.73 352.56,-245.94"/>
<text text-anchor="middle" x="360.62" y="-256.18" font-family="Times,serif" font-size="14.00">arg</text>
</g>
<!-- %85 -->
<g id="node22" class="node">
<title>%85</title>
<ellipse fill="none" stroke="black" cx="418" cy="-216.98" rx="27" ry="18"/>
<text text-anchor="middle" x="418" y="-211.93" font-family="Times,serif" font-size="14.00">0</text>
</g>
<!-- %73&#45;&gt;%85 -->
<g id="edge21" class="edge">
<title>%85&#45;&gt;%85</title>
<path fill="none" stroke="black" d="M374.15,-288.06C383.03,-273.87 393.78,-256.69 402.42,-242.88"/>
<polygon fill="black" stroke="black" points="405.67,-245.28 408.01,-234.95 399.74,-241.57 405.67,-245.28"/>
<text text-anchor="middle" x="403.62" y="-256.18" font-family="Times,serif" font-size="14.00">arg</text>
</g>
<!-- %89 -->
<g id="node23" class="node">
<title>%89</title>
<ellipse fill="none" stroke="black" cx="498" cy="-216.98" rx="27" ry="18"/>
<text text-anchor="middle" x="498" y="-211.93" font-family="Times,serif" font-size="14.00">0</text>
</g>
<!-- %77&#45;&gt;%89 -->
<g id="edge22" class="edge">
<title>%89&#45;&gt;%89</title>
<path fill="none" stroke="black" d="M498,-298.04C498,-283.63 498,-262.87 498,-246.1"/>
<polygon fill="black" stroke="black" points="501.5,-246.26 498,-236.26 494.5,-246.26 501.5,-246.26"/>
<text text-anchor="middle" x="512.62" y="-256.18" font-family="Times,serif" font-size="14.00">value</text>
</g>
<!-- %109 -->
<g id="node28" class="node">
<title>%109</title>
<ellipse fill="none" stroke="black" cx="591" cy="-415.97" rx="34.97" ry="18"/>
<text text-anchor="middle" x="591" y="-410.92" font-family="Times,serif" font-size="14.00">_tmp1</text>
</g>
<!-- %97&#45;&gt;%109 -->
<g id="edge27" class="edge">
<title>%109&#45;&gt;%109</title>
<path fill="none" stroke="black" d="M584.43,-497.03C585.61,-482.61 587.32,-461.85 588.69,-445.09"/>
<polygon fill="black" stroke="black" points="592.25,-445.5 589.58,-435.24 585.28,-444.92 592.25,-445.5"/>
</g>
<!-- %113 -->
<g id="node29" class="node">
<title>%113</title>
<ellipse fill="none" stroke="black" cx="687" cy="-415.97" rx="27" ry="18"/>
<text text-anchor="middle" x="687" y="-410.92" font-family="Times,serif" font-size="14.00">0</text>
</g>
<!-- %101&#45;&gt;%113 -->
<g id="edge28" class="edge">
<title>%113&#45;&gt;%113</title>
<path fill="none" stroke="black" d="M692.69,-486.26C691.62,-473.3 690.36,-457.96 689.3,-445.02"/>
<polygon fill="black" stroke="black" points="692.74,-445.06 688.43,-435.38 685.76,-445.63 692.74,-445.06"/>
<text text-anchor="middle" x="705.62" y="-455.17" font-family="Times,serif" font-size="14.00">value</text>
</g>
<!-- %117 -->
<g id="node30" class="node">
<title>%117</title>
<ellipse fill="none" stroke="black" cx="777" cy="-415.97" rx="45.21" ry="18"/>
<text text-anchor="middle" x="777" y="-410.92" font-family="Times,serif" font-size="14.00">ListNode</text>
</g>
<!-- %105&#45;&gt;%117 -->
<g id="edge29" class="edge">
<title>%117&#45;&gt;%117</title>
<path fill="none" stroke="black" d="M874.94,-498.58C855.62,-482.48 825.55,-457.42 803.83,-439.32"/>
<polygon fill="black" stroke="black" points="806.59,-436.23 796.66,-432.52 802.11,-441.61 806.59,-436.23"/>
<text text-anchor="middle" x="851.75" y="-455.17" font-family="Times,serif" font-size="14.00">locals</text>
</g>
<!-- %121 -->
<g id="node31" class="node">
<title>%121</title>
<ellipse fill="none" stroke="black" cx="894" cy="-415.97" rx="53.91" ry="18"/>
<text text-anchor="middle" x="894" y="-410.92" font-family="Times,serif" font-size="14.00">WhileNode</text>
</g>
<!-- %105&#45;&gt;%121 -->
<g id="edge30" class="edge">
<title>%121&#45;&gt;%121</title>
<path fill="none" stroke="black" d="M894,-497.03C894,-482.61 894,-461.85 894,-445.09"/>
<polygon fill="black" stroke="black" points="897.5,-445.24 894,-435.24 890.5,-445.24 897.5,-445.24"/>
</g>
<!-- %125 -->
<g id="node32" class="node">
<title>%125</title>
<ellipse fill="none" stroke="black" cx="1019" cy="-415.97" rx="50.84" ry="18"/>
<text text-anchor="middle" x="1019" y="-410.92" font-family="Times,serif" font-size="14.00">CondNode</text>
</g>
<!-- %105&#45;&gt;%125 -->
<g id="edge31" class="edge">
<title>%125&#45;&gt;%125</title>
<path fill="none" stroke="black" d="M914.08,-498.79C934.64,-482.76 966.8,-457.68 990.1,-439.51"/>
<polygon fill="black" stroke="black" points="991.82,-441.82 997.55,-432.91 987.51,-436.3 991.82,-441.82"/>
</g>
<!-- %129 -->
<g id="node33" class="node">
<title>%129</title>
<ellipse fill="none" stroke="black" cx="1202" cy="-415.97" rx="55.96" ry="18"/>
<text text-anchor="middle" x="1202" y="-410.92" font-family="Times,serif" font-size="14.00">ReturnNode</text>
</g>
<!-- %105&#45;&gt;%129 -->
<g id="edge32" class="edge">
<title>%129&#45;&gt;%129</title>
<path fill="none" stroke="black" d="M929.93,-503.08C985.14,-485.61 1090.92,-452.12 1153.07,-432.45"/>
<polygon fill="black" stroke="black" points="1153.92,-435.54 1162.4,-429.18 1151.81,-428.86 1153.92,-435.54"/>
</g>
<!-- %133 -->
<g id="node34" class="node">
<title>%133</title>
<ellipse fill="none" stroke="black" cx="793" cy="-316.47" rx="27" ry="18"/>
<text text-anchor="middle" x="793" y="-311.42" font-family="Times,serif" font-size="14.00">true</text>
</g>
<!-- %121&#45;&gt;%133 -->
<g id="edge33" class="edge">
<title>%133&#45;&gt;%133</title>
<path fill="none" stroke="black" d="M876.87,-398.43C860,-382.15 834.15,-357.2 815.61,-339.3"/>
<polygon fill="black" stroke="black" points="818.54,-337.29 808.91,-332.87 813.67,-342.33 818.54,-337.29"/>
<text text-anchor="middle" x="869.12" y="-366.67" font-family="Times,serif" font-size="14.00">cond</text>
</g>
<!-- %137 -->
<g id="node35" class="node">
<title>%137</title>
<ellipse fill="none" stroke="black" cx="886" cy="-316.47" rx="48.28" ry="18"/>
<text text-anchor="middle" x="886" y="-311.42" font-family="Times,serif" font-size="14.00">ProgNode</text>
</g>
<!-- %121&#45;&gt;%137 -->
<g id="edge34" class="edge">
<title>%137&#45;&gt;%137</title>
<path fill="none" stroke="black" d="M892.57,-397.54C891.39,-383.12 889.68,-362.36 888.31,-345.6"/>
<polygon fill="black" stroke="black" points="891.72,-345.43 887.42,-335.75 884.75,-346.01 891.72,-345.43"/>
<text text-anchor="middle" x="904.5" y="-366.67" font-family="Times,serif" font-size="14.00">body</text>
</g>
<!-- %165 -->
<g id="node42" class="node">
<title>%165</title>
<ellipse fill="none" stroke="black" cx="1019" cy="-316.47" rx="67" ry="28.99"/>
<text text-anchor="middle" x="1019" y="-319.67" font-family="Times,serif" font-size="14.00">FuncCallNode</text>
<text text-anchor="middle" x="1019" y="-303.17" font-family="Times,serif" font-size="14.00">equal</text>
</g>
<!-- %125&#45;&gt;%165 -->
<g id="edge41" class="edge">
<title>%165&#45;&gt;%165</title>
<path fill="none" stroke="black" d="M1019,-397.54C1019,-386.1 1019,-370.68 1019,-356.42"/>
<polygon fill="black" stroke="black" points="1022.5,-356.83 1019,-346.83 1015.5,-356.83 1022.5,-356.83"/>
<text text-anchor="middle" x="1032.12" y="-366.67" font-family="Times,serif" font-size="14.00">cond</text>
</g>
<!-- %169 -->
<g id="node43" class="node">
<title>%169</title>
<ellipse fill="none" stroke="black" cx="1160" cy="-316.47" rx="55.96" ry="18"/>
<text text-anchor="middle" x="1160" y="-311.42" font-family="Times,serif" font-size="14.00">ReturnNode</text>
</g>
<!-- %125&#45;&gt;%169 -->
<g id="edge42" class="edge">
<title>%169&#45;&gt;%169</title>
<path fill="none" stroke="black" d="M1041.34,-399.52C1064.82,-383.28 1101.95,-357.61 1128.42,-339.31"/>
<polygon fill="black" stroke="black" points="1130.06,-341.74 1136.3,-333.17 1126.08,-335.98 1130.06,-341.74"/>
<text text-anchor="middle" x="1117.38" y="-366.67" font-family="Times,serif" font-size="14.00">body_true</text>
</g>
<!-- %185 -->
<g id="node47" class="node">
<title>%185</title>
<ellipse fill="none" stroke="black" cx="1261" cy="-316.47" rx="27" ry="18"/>
<text text-anchor="middle" x="1261" y="-311.42" font-family="Times,serif" font-size="14.00">1</text>
</g>
<!-- %129&#45;&gt;%185 -->
<g id="edge46" class="edge">
<title>%185&#45;&gt;%185</title>
<path fill="none" stroke="black" d="M1212.28,-397.98C1221.53,-382.7 1235.24,-360.04 1245.76,-342.65"/>
<polygon fill="black" stroke="black" points="1249.05,-344.98 1251.23,-334.61 1243.06,-341.36 1249.05,-344.98"/>
<text text-anchor="middle" x="1246.62" y="-366.67" font-family="Times,serif" font-size="14.00">value</text>
</g>
<!-- %141 -->
<g id="node36" class="node">
<title>%141</title>
<ellipse fill="none" stroke="black" cx="778" cy="-216.98" rx="45.21" ry="18"/>
<text text-anchor="middle" x="778" y="-211.93" font-family="Times,serif" font-size="14.00">ListNode</text>
</g>
<!-- %137&#45;&gt;%141 -->
<g id="edge35" class="edge">
<title>%141&#45;&gt;%141</title>
<path fill="none" stroke="black" d="M868.17,-299.38C850.55,-283.48 823.44,-259 803.54,-241.04"/>
<polygon fill="black" stroke="black" points="806.27,-238.88 796.5,-234.78 801.58,-244.08 806.27,-238.88"/>
<text text-anchor="middle" x="847.75" y="-256.18" font-family="Times,serif" font-size="14.00">locals</text>
</g>
<!-- %145 -->
<g id="node37" class="node">
<title>%145</title>
<ellipse fill="none" stroke="black" cx="892" cy="-216.98" rx="50.84" ry="18"/>
<text text-anchor="middle" x="892" y="-211.93" font-family="Times,serif" font-size="14.00">CondNode</text>
</g>
<!-- %137&#45;&gt;%145 -->
<g id="edge36" class="edge">
<title>%145&#45;&gt;%145</title>
<path fill="none" stroke="black" d="M887.07,-298.04C887.96,-283.63 889.24,-262.87 890.27,-246.1"/>
<polygon fill="black" stroke="black" points="893.82,-246.46 890.94,-236.26 886.83,-246.03 893.82,-246.46"/>
</g>
<!-- %149 -->
<g id="node38" class="node">
<title>%149</title>
<ellipse fill="none" stroke="black" cx="834" cy="-117.49" rx="67" ry="28.99"/>
<text text-anchor="middle" x="834" y="-120.69" font-family="Times,serif" font-size="14.00">FuncCallNode</text>
<text text-anchor="middle" x="834" y="-104.19" font-family="Times,serif" font-size="14.00">equal</text>
</g>
<!-- %145&#45;&gt;%149 -->
<g id="edge37" class="edge">
<title>%149&#45;&gt;%149</title>
<path fill="none" stroke="black" d="M881.9,-199C874.69,-186.89 864.74,-170.15 855.76,-155.08"/>
<polygon fill="black" stroke="black" points="858.46,-153.76 850.34,-146.96 852.44,-157.34 858.46,-153.76"/>
<text text-anchor="middle" x="883.12" y="-167.68" font-family="Times,serif" font-size="14.00">cond</text>
</g>
<!-- %153 -->
<g id="node39" class="node">
<title>%153</title>
<ellipse fill="none" stroke="black" cx="950" cy="-117.49" rx="31.39" ry="18"/>
<text text-anchor="middle" x="950" y="-112.44" font-family="Times,serif" font-size="14.00">break</text>
</g>
<!-- %145&#45;&gt;%153 -->
<g id="edge38" class="edge">
<title>%153&#45;&gt;%153</title>
<path fill="none" stroke="black" d="M902.1,-199C911.14,-183.81 924.51,-161.33 934.83,-143.98"/>
<polygon fill="black" stroke="black" points="938.1,-146.34 940.21,-135.95 932.09,-142.76 938.1,-146.34"/>
<text text-anchor="middle" x="948.38" y="-167.68" font-family="Times,serif" font-size="14.00">body_true</text>
</g>
<!-- %157 -->
<g id="node40" class="node">
<title>%157</title>
<ellipse fill="none" stroke="black" cx="794" cy="-18" rx="34.97" ry="18"/>
<text text-anchor="middle" x="794" y="-12.95" font-family="Times,serif" font-size="14.00">_tmp1</text>
</g>
<!-- %149&#45;&gt;%157 -->
<g id="edge39" class="edge">
<title>%157&#45;&gt;%157</title>
<path fill="none" stroke="black" d="M822.54,-88.55C817.04,-75.15 810.47,-59.15 805.03,-45.88"/>
<polygon fill="black" stroke="black" points="807.98,-44.85 800.95,-36.93 801.5,-47.51 807.98,-44.85"/>
<text text-anchor="middle" x="822.62" y="-57.2" font-family="Times,serif" font-size="14.00">arg</text>
</g>
<!-- %161 -->
<g id="node41" class="node">
<title>%161</title>
<ellipse fill="none" stroke="black" cx="874" cy="-18" rx="27" ry="18"/>
<text text-anchor="middle" x="874" y="-12.95" font-family="Times,serif" font-size="14.00">0</text>
</g>
<!-- %149&#45;&gt;%161 -->
<g id="edge40" class="edge">
<title>%161&#45;&gt;%161</title>
<path fill="none" stroke="black" d="M845.46,-88.55C851,-75.06 857.61,-58.94 863.08,-45.62"/>
<polygon fill="black" stroke="black" points="866.61,-47.22 867.17,-36.64 860.14,-44.56 866.61,-47.22"/>
<text text-anchor="middle" x="867.62" y="-57.2" font-family="Times,serif" font-size="14.00">arg</text>
</g>
<!-- %173 -->
<g id="node44" class="node">
<title>%173</title>
<ellipse fill="none" stroke="black" cx="999" cy="-216.98" rx="34.97" ry="18"/>
<text text-anchor="middle" x="999" y="-211.93" font-family="Times,serif" font-size="14.00">_tmp1</text>
</g>
<!-- %165&#45;&gt;%173 -->
<g id="edge43" class="edge">
<title>%173&#45;&gt;%173</title>
<path fill="none" stroke="black" d="M1013.22,-287.28C1010.54,-274.23 1007.37,-258.77 1004.7,-245.78"/>
<polygon fill="black" stroke="black" points="1007.95,-245.2 1002.51,-236.11 1001.09,-246.61 1007.95,-245.2"/>
<text text-anchor="middle" x="1017.62" y="-256.18" font-family="Times,serif" font-size="14.00">arg</text>
</g>
<!-- %177 -->
<g id="node45" class="node">
<title>%177</title>
<ellipse fill="none" stroke="black" cx="1079" cy="-216.98" rx="27" ry="18"/>
<text text-anchor="middle" x="1079" y="-211.93" font-family="Times,serif" font-size="14.00">0</text>
</g>
<!-- %165&#45;&gt;%177 -->
<g id="edge44" class="edge">
<title>%177&#45;&gt;%177</title>
<path fill="none" stroke="black" d="M1035.87,-288.06C1044.52,-274.01 1054.98,-257.02 1063.43,-243.28"/>
<polygon fill="black" stroke="black" points="1066.92,-245.3 1069.18,-234.95 1060.95,-241.63 1066.92,-245.3"/>
<text text-anchor="middle" x="1065.62" y="-256.18" font-family="Times,serif" font-size="14.00">arg</text>
</g>
<!-- %181 -->
<g id="node46" class="node">
<title>%181</title>
<ellipse fill="none" stroke="black" cx="1160" cy="-216.98" rx="27" ry="18"/>
<text text-anchor="middle" x="1160" y="-211.93" font-family="Times,serif" font-size="14.00">0</text>
</g>
<!-- %169&#45;&gt;%181 -->
<g id="edge45" class="edge">
<title>%181&#45;&gt;%181</title>
<path fill="none" stroke="black" d="M1160,-298.04C1160,-283.63 1160,-262.87 1160,-246.1"/>
<polygon fill="black" stroke="black" points="1163.5,-246.26 1160,-236.26 1156.5,-246.26 1163.5,-246.26"/>
<text text-anchor="middle" x="1174.62" y="-256.18" font-family="Times,serif" font-size="14.00">value</text>
</g>
</g>
</svg>
