<?xml version="1.0" encoding="UTF-8" standalone="no"?>
<!DOCTYPE svg PUBLIC "-//W3C//DTD SVG 1.1//EN"
 "http://www.w3.org/Graphics/SVG/1.1/DTD/svg11.dtd">
<!-- Generated by graphviz version 8.1.0 (20230707.0739)
 -->
<!-- Title: ast Pages: 1 -->
<svg width="655pt" height="751pt"
 viewBox="0.00 0.00 655.07 751.43" xmlns="http://www.w3.org/2000/svg" xmlns:xlink="http://www.w3.org/1999/xlink">
<g id="graph0" class="graph" transform="scale(1 1) rotate(0) translate(4 747.43)">
<title>ast</title>
<polygon fill="white" stroke="none" points="-4,4 -4,-747.43 651.07,-747.43 651.07,4 -4,4"/>
<!-- %3 -->
<g id="node1" class="node">
<title>%3</title>
<ellipse fill="none" stroke="black" cx="169.07" cy="-714.44" rx="65.41" ry="28.99"/>
<text text-anchor="middle" x="169.07" y="-717.64" font-family="Times,serif" font-size="14.00">FuncDefNode</text>
<text text-anchor="middle" x="169.07" y="-701.14" font-family="Times,serif" font-size="14.00">incrementer</text>
</g>
<!-- %5 -->
<g id="node2" class="node">
<title>%5</title>
<ellipse fill="none" stroke="black" cx="114.07" cy="-614.95" rx="45.21" ry="18"/>
<text text-anchor="middle" x="114.07" y="-609.9" font-family="Times,serif" font-size="14.00">ListNode</text>
</g>
<!-- %3&#45;&gt;%5 -->
<g id="edge1" class="edge">
<title>%5&#45;&gt;%5</title>
<path fill="none" stroke="black" d="M153.6,-686.02C145.83,-672.25 136.46,-655.64 128.79,-642.05"/>
<polygon fill="black" stroke="black" points="131.52,-640.76 123.56,-633.77 125.42,-644.2 131.52,-640.76"/>
<text text-anchor="middle" x="161.94" y="-654.15" font-family="Times,serif" font-size="14.00">params</text>
</g>
<!-- %9 -->
<g id="node3" class="node">
<title>%9</title>
<ellipse fill="none" stroke="black" cx="225.07" cy="-614.95" rx="48.28" ry="18"/>
<text text-anchor="middle" x="225.07" y="-609.9" font-family="Times,serif" font-size="14.00">ProgNode</text>
</g>
<!-- %3&#45;&gt;%9 -->
<g id="edge2" class="edge">
<title>%9&#45;&gt;%9</title>
<path fill="none" stroke="black" d="M184.82,-686.02C192.68,-672.34 202.14,-655.86 209.92,-642.32"/>
<polygon fill="black" stroke="black" points="213.29,-644.47 215.24,-634.06 207.22,-640.99 213.29,-644.47"/>
<text text-anchor="middle" x="217.57" y="-654.15" font-family="Times,serif" font-size="14.00">body</text>
</g>
<!-- %13 -->
<g id="node4" class="node">
<title>%13</title>
<ellipse fill="none" stroke="black" cx="39.07" cy="-526.45" rx="39.07" ry="18"/>
<text text-anchor="middle" x="39.07" y="-521.4" font-family="Times,serif" font-size="14.00">nTimes</text>
</g>
<!-- %5&#45;&gt;%13 -->
<g id="edge3" class="edge">
<title>%13&#45;&gt;%13</title>
<path fill="none" stroke="black" d="M99.96,-597.68C88.75,-584.75 72.9,-566.47 60.18,-551.8"/>
<polygon fill="black" stroke="black" points="62.31,-549.91 53.11,-544.65 57.02,-554.49 62.31,-549.91"/>
</g>
<!-- %17 -->
<g id="node5" class="node">
<title>%17</title>
<ellipse fill="none" stroke="black" cx="124.07" cy="-526.45" rx="27.81" ry="18"/>
<text text-anchor="middle" x="124.07" y="-521.4" font-family="Times,serif" font-size="14.00">num</text>
</g>
<!-- %5&#45;&gt;%17 -->
<g id="edge4" class="edge">
<title>%17&#45;&gt;%17</title>
<path fill="none" stroke="black" d="M116.04,-596.86C117.4,-585.09 119.24,-569.18 120.82,-555.56"/>
<polygon fill="black" stroke="black" points="124.39,-556.13 122.06,-545.8 117.44,-555.33 124.39,-556.13"/>
</g>
<!-- %21 -->
<g id="node6" class="node">
<title>%21</title>
<ellipse fill="none" stroke="black" cx="220.07" cy="-526.45" rx="45.21" ry="18"/>
<text text-anchor="middle" x="220.07" y="-521.4" font-family="Times,serif" font-size="14.00">ListNode</text>
</g>
<!-- %9&#45;&gt;%21 -->
<g id="edge5" class="edge">
<title>%21&#45;&gt;%21</title>
<path fill="none" stroke="black" d="M224.08,-596.86C223.4,-585.09 222.48,-569.18 221.69,-555.56"/>
<polygon fill="black" stroke="black" points="225.14,-555.58 221.07,-545.8 218.15,-555.98 225.14,-555.58"/>
<text text-anchor="middle" x="238.82" y="-565.65" font-family="Times,serif" font-size="14.00">locals</text>
</g>
<!-- %25 -->
<g id="node7" class="node">
<title>%25</title>
<ellipse fill="none" stroke="black" cx="334.07" cy="-526.45" rx="50.84" ry="18"/>
<text text-anchor="middle" x="334.07" y="-521.4" font-family="Times,serif" font-size="14.00">CondNode</text>
</g>
<!-- %9&#45;&gt;%25 -->
<g id="edge6" class="edge">
<title>%25&#45;&gt;%25</title>
<path fill="none" stroke="black" d="M245.06,-598.08C262.04,-584.61 286.61,-565.11 305.63,-550.01"/>
<polygon fill="black" stroke="black" points="307.54,-552.17 313.2,-543.21 303.19,-546.69 307.54,-552.17"/>
</g>
<!-- %29 -->
<g id="node8" class="node">
<title>%29</title>
<ellipse fill="none" stroke="black" cx="221.07" cy="-426.96" rx="67" ry="28.99"/>
<text text-anchor="middle" x="221.07" y="-430.16" font-family="Times,serif" font-size="14.00">FuncCallNode</text>
<text text-anchor="middle" x="221.07" y="-413.66" font-family="Times,serif" font-size="14.00">equal</text>
</g>
<!-- %25&#45;&gt;%29 -->
<g id="edge7" class="edge">
<title>%29&#45;&gt;%29</title>
<path fill="none" stroke="black" d="M315.41,-509.35C300.01,-496.06 277.67,-476.79 258.6,-460.33"/>
<polygon fill="black" stroke="black" points="261.23,-457.12 251.38,-453.24 256.66,-462.42 261.23,-457.12"/>
<text text-anchor="middle" x="304.19" y="-477.15" font-family="Times,serif" font-size="14.00">cond</text>
</g>
<!-- %33 -->
<g id="node9" class="node">
<title>%33</title>
<ellipse fill="none" stroke="black" cx="334.07" cy="-426.96" rx="27.81" ry="18"/>
<text text-anchor="middle" x="334.07" y="-421.91" font-family="Times,serif" font-size="14.00">num</text>
</g>
<!-- %25&#45;&gt;%33 -->
<g id="edge8" class="edge">
<title>%33&#45;&gt;%33</title>
<path fill="none" stroke="black" d="M334.07,-508.02C334.07,-493.6 334.07,-472.84 334.07,-456.08"/>
<polygon fill="black" stroke="black" points="337.57,-456.24 334.07,-446.24 330.57,-456.24 337.57,-456.24"/>
<text text-anchor="middle" x="361.44" y="-477.15" font-family="Times,serif" font-size="14.00">body_true</text>
</g>
<!-- %37 -->
<g id="node10" class="node">
<title>%37</title>
<ellipse fill="none" stroke="black" cx="436.07" cy="-426.96" rx="55.96" ry="18"/>
<text text-anchor="middle" x="436.07" y="-421.91" font-family="Times,serif" font-size="14.00">ReturnNode</text>
</g>
<!-- %25&#45;&gt;%37 -->
<g id="edge9" class="edge">
<title>%37&#45;&gt;%37</title>
<path fill="none" stroke="black" d="M363.4,-511.36C373.46,-505.7 384.37,-498.58 393.07,-490.45 404.23,-480.02 414.1,-466.21 421.56,-454.23"/>
<polygon fill="black" stroke="black" points="424.89,-456.49 427.01,-446.11 418.88,-452.9 424.89,-456.49"/>
<text text-anchor="middle" x="436.69" y="-477.15" font-family="Times,serif" font-size="14.00">body_false</text>
</g>
<!-- %41 -->
<g id="node11" class="node">
<title>%41</title>
<ellipse fill="none" stroke="black" cx="179.07" cy="-327.47" rx="39.07" ry="18"/>
<text text-anchor="middle" x="179.07" y="-322.42" font-family="Times,serif" font-size="14.00">nTimes</text>
</g>
<!-- %29&#45;&gt;%41 -->
<g id="edge10" class="edge">
<title>%41&#45;&gt;%41</title>
<path fill="none" stroke="black" d="M209.03,-398.02C203.26,-384.61 196.37,-368.62 190.65,-355.35"/>
<polygon fill="black" stroke="black" points="193.53,-354.19 186.36,-346.39 187.1,-356.96 193.53,-354.19"/>
<text text-anchor="middle" x="208.69" y="-366.67" font-family="Times,serif" font-size="14.00">arg</text>
</g>
<!-- %45 -->
<g id="node12" class="node">
<title>%45</title>
<ellipse fill="none" stroke="black" cx="263.07" cy="-327.47" rx="27" ry="18"/>
<text text-anchor="middle" x="263.07" y="-322.42" font-family="Times,serif" font-size="14.00">0</text>
</g>
<!-- %29&#45;&gt;%45 -->
<g id="edge11" class="edge">
<title>%45&#45;&gt;%45</title>
<path fill="none" stroke="black" d="M233.1,-398.02C238.92,-384.52 245.86,-368.41 251.6,-355.09"/>
<polygon fill="black" stroke="black" points="255.16,-356.68 255.9,-346.11 248.73,-353.91 255.16,-356.68"/>
<text text-anchor="middle" x="255.69" y="-366.67" font-family="Times,serif" font-size="14.00">arg</text>
</g>
<!-- %49 -->
<g id="node13" class="node">
<title>%49</title>
<ellipse fill="none" stroke="black" cx="436.07" cy="-327.47" rx="61.59" ry="18"/>
<text text-anchor="middle" x="436.07" y="-322.42" font-family="Times,serif" font-size="14.00">LambdaNode</text>
</g>
<!-- %37&#45;&gt;%49 -->
<g id="edge12" class="edge">
<title>%49&#45;&gt;%49</title>
<path fill="none" stroke="black" d="M436.07,-408.53C436.07,-394.11 436.07,-373.35 436.07,-356.59"/>
<polygon fill="black" stroke="black" points="439.57,-356.74 436.07,-346.74 432.57,-356.74 439.57,-356.74"/>
<text text-anchor="middle" x="450.69" y="-366.67" font-family="Times,serif" font-size="14.00">value</text>
</g>
<!-- %53 -->
<g id="node14" class="node">
<title>%53</title>
<ellipse fill="none" stroke="black" cx="388.07" cy="-227.97" rx="45.21" ry="18"/>
<text text-anchor="middle" x="388.07" y="-222.92" font-family="Times,serif" font-size="14.00">ListNode</text>
</g>
<!-- %49&#45;&gt;%53 -->
<g id="edge13" class="edge">
<title>%53&#45;&gt;%53</title>
<path fill="none" stroke="black" d="M427.71,-309.48C420.39,-294.62 409.63,-272.77 401.17,-255.58"/>
<polygon fill="black" stroke="black" points="404.05,-254.51 396.49,-247.09 397.77,-257.61 404.05,-254.51"/>
<text text-anchor="middle" x="437.94" y="-278.17" font-family="Times,serif" font-size="14.00">params</text>
</g>
<!-- %57 -->
<g id="node15" class="node">
<title>%57</title>
<ellipse fill="none" stroke="black" cx="518.07" cy="-227.97" rx="67" ry="28.99"/>
<text text-anchor="middle" x="518.07" y="-231.17" font-family="Times,serif" font-size="14.00">FuncCallNode</text>
<text text-anchor="middle" x="518.07" y="-214.67" font-family="Times,serif" font-size="14.00">incrementer</text>
</g>
<!-- %49&#45;&gt;%57 -->
<g id="edge14" class="edge">
<title>%57&#45;&gt;%57</title>
<path fill="none" stroke="black" d="M450.35,-309.48C460.88,-296.96 475.58,-279.49 488.59,-264.02"/>
<polygon fill="black" stroke="black" points="491.85,-266.58 495.61,-256.68 486.49,-262.08 491.85,-266.58"/>
<text text-anchor="middle" x="490.57" y="-278.17" font-family="Times,serif" font-size="14.00">body</text>
</g>
<!-- %61 -->
<g id="node16" class="node">
<title>%61</title>
<ellipse fill="none" stroke="black" cx="428.07" cy="-117.49" rx="67" ry="28.99"/>
<text text-anchor="middle" x="428.07" y="-120.69" font-family="Times,serif" font-size="14.00">FuncCallNode</text>
<text text-anchor="middle" x="428.07" y="-104.19" font-family="Times,serif" font-size="14.00">minus</text>
</g>
<!-- %57&#45;&gt;%61 -->
<g id="edge15" class="edge">
<title>%61&#45;&gt;%61</title>
<path fill="none" stroke="black" d="M495.82,-200.16C484.05,-185.97 469.46,-168.38 456.84,-153.17"/>
<polygon fill="black" stroke="black" points="459.14,-151.46 450.06,-146 453.75,-155.93 459.14,-151.46"/>
<text text-anchor="middle" x="487.69" y="-167.68" font-family="Times,serif" font-size="14.00">arg</text>
</g>
<!-- %65 -->
<g id="node17" class="node">
<title>%65</title>
<ellipse fill="none" stroke="black" cx="580.07" cy="-117.49" rx="67" ry="28.99"/>
<text text-anchor="middle" x="580.07" y="-120.69" font-family="Times,serif" font-size="14.00">FuncCallNode</text>
<text text-anchor="middle" x="580.07" y="-104.19" font-family="Times,serif" font-size="14.00">plus</text>
</g>
<!-- %57&#45;&gt;%65 -->
<g id="edge16" class="edge">
<title>%65&#45;&gt;%65</title>
<path fill="none" stroke="black" d="M533.87,-199.32C541.53,-185.93 550.82,-169.67 559.06,-155.25"/>
<polygon fill="black" stroke="black" points="562.37,-157.52 564.29,-147.1 556.29,-154.04 562.37,-157.52"/>
<text text-anchor="middle" x="561.69" y="-167.68" font-family="Times,serif" font-size="14.00">arg</text>
</g>
<!-- %69 -->
<g id="node18" class="node">
<title>%69</title>
<ellipse fill="none" stroke="black" cx="383.07" cy="-18" rx="39.07" ry="18"/>
<text text-anchor="middle" x="383.07" y="-12.95" font-family="Times,serif" font-size="14.00">nTimes</text>
</g>
<!-- %61&#45;&gt;%69 -->
<g id="edge17" class="edge">
<title>%69&#45;&gt;%69</title>
<path fill="none" stroke="black" d="M415.17,-88.55C408.98,-75.15 401.6,-59.15 395.48,-45.88"/>
<polygon fill="black" stroke="black" points="398.25,-44.54 390.88,-36.93 391.9,-47.47 398.25,-44.54"/>
<text text-anchor="middle" x="414.69" y="-57.2" font-family="Times,serif" font-size="14.00">arg</text>
</g>
<!-- %73 -->
<g id="node19" class="node">
<title>%73</title>
<ellipse fill="none" stroke="black" cx="467.07" cy="-18" rx="27" ry="18"/>
<text text-anchor="middle" x="467.07" y="-12.95" font-family="Times,serif" font-size="14.00">1</text>
</g>
<!-- %61&#45;&gt;%73 -->
<g id="edge18" class="edge">
<title>%73&#45;&gt;%73</title>
<path fill="none" stroke="black" d="M439.24,-88.55C444.61,-75.15 451.01,-59.15 456.31,-45.88"/>
<polygon fill="black" stroke="black" points="459.83,-47.51 460.3,-36.93 453.33,-44.91 459.83,-47.51"/>
<text text-anchor="middle" x="461.69" y="-57.2" font-family="Times,serif" font-size="14.00">arg</text>
</g>
<!-- %77 -->
<g id="node20" class="node">
<title>%77</title>
<ellipse fill="none" stroke="black" cx="543.07" cy="-18" rx="27.81" ry="18"/>
<text text-anchor="middle" x="543.07" y="-12.95" font-family="Times,serif" font-size="14.00">num</text>
</g>
<!-- %65&#45;&gt;%77 -->
<g id="edge19" class="edge">
<title>%77&#45;&gt;%77</title>
<path fill="none" stroke="black" d="M569.47,-88.55C564.38,-75.15 558.31,-59.15 553.27,-45.88"/>
<polygon fill="black" stroke="black" points="556.31,-45.04 549.49,-36.93 549.77,-47.52 556.31,-45.04"/>
<text text-anchor="middle" x="570.69" y="-57.2" font-family="Times,serif" font-size="14.00">arg</text>
</g>
<!-- %81 -->
<g id="node21" class="node">
<title>%81</title>
<ellipse fill="none" stroke="black" cx="616.07" cy="-18" rx="27" ry="18"/>
<text text-anchor="middle" x="616.07" y="-12.95" font-family="Times,serif" font-size="14.00">1</text>
</g>
<!-- %65&#45;&gt;%81 -->
<g id="edge20" class="edge">
<title>%81&#45;&gt;%81</title>
<path fill="none" stroke="black" d="M590.38,-88.55C595.34,-75.15 601.24,-59.15 606.14,-45.88"/>
<polygon fill="black" stroke="black" points="609.64,-47.52 609.82,-36.93 603.07,-45.1 609.64,-47.52"/>
<text text-anchor="middle" x="610.69" y="-57.2" font-family="Times,serif" font-size="14.00">arg</text>
</g>
</g>
</svg>
