<?xml version="1.0" encoding="UTF-8" standalone="no"?>
<!DOCTYPE svg PUBLIC "-//W3C//DTD SVG 1.1//EN"
 "http://www.w3.org/Graphics/SVG/1.1/DTD/svg11.dtd">
<!-- Generated by graphviz version 8.1.0 (20230707.0739)
 -->
<!-- Title: ast Pages: 1 -->
<svg width="2518pt" height="1222pt"
 viewBox="0.00 0.00 2517.97 1221.83" xmlns="http://www.w3.org/2000/svg" xmlns:xlink="http://www.w3.org/1999/xlink">
<g id="graph0" class="graph" transform="scale(1 1) rotate(0) translate(4 1217.83)">
<title>ast</title>
<polygon fill="white" stroke="none" points="-4,4 -4,-1217.83 2513.97,-1217.83 2513.97,4 -4,4"/>
<!-- %3 -->
<g id="node1" class="node">
<title>%3</title>
<ellipse fill="none" stroke="black" cx="285.97" cy="-1195.83" rx="42.65" ry="18"/>
<text text-anchor="middle" x="285.97" y="-1190.78" font-family="Times,serif" font-size="14.00">program</text>
</g>
<!-- %5 -->
<g id="node2" class="node">
<title>%5</title>
<ellipse fill="none" stroke="black" cx="285.97" cy="-1111.84" rx="50.03" ry="28.99"/>
<text text-anchor="middle" x="285.97" y="-1115.04" font-family="Times,serif" font-size="14.00">ProgNode</text>
<text text-anchor="middle" x="285.97" y="-1098.54" font-family="Times,serif" font-size="14.00">inlined</text>
</g>
<!-- %3&#45;&gt;%5 -->
<g id="edge1" class="edge">
<title>%5&#45;&gt;%5</title>
<path fill="none" stroke="black" d="M285.97,-1177.44C285.97,-1169.95 285.97,-1160.87 285.97,-1151.92"/>
<polygon fill="black" stroke="black" points="289.47,-1152.17 285.97,-1142.17 282.47,-1152.17 289.47,-1152.17"/>
</g>
<!-- %9 -->
<g id="node3" class="node">
<title>%9</title>
<ellipse fill="none" stroke="black" cx="122.97" cy="-1001.35" rx="45.21" ry="18"/>
<text text-anchor="middle" x="122.97" y="-996.3" font-family="Times,serif" font-size="14.00">ListNode</text>
</g>
<!-- %5&#45;&gt;%9 -->
<g id="edge2" class="edge">
<title>%9&#45;&gt;%9</title>
<path fill="none" stroke="black" d="M253.77,-1089.4C224.93,-1070.21 182.89,-1042.23 154.32,-1023.21"/>
<polygon fill="black" stroke="black" points="156.45,-1019.76 146.18,-1017.13 152.57,-1025.59 156.45,-1019.76"/>
<text text-anchor="middle" x="230.72" y="-1051.54" font-family="Times,serif" font-size="14.00">locals</text>
</g>
<!-- %13 -->
<g id="node4" class="node">
<title>%13</title>
<ellipse fill="none" stroke="black" cx="248.97" cy="-1001.35" rx="48.97" ry="28.99"/>
<text text-anchor="middle" x="248.97" y="-1004.55" font-family="Times,serif" font-size="14.00">SetqNode</text>
<text text-anchor="middle" x="248.97" y="-988.05" font-family="Times,serif" font-size="14.00">_tmp2</text>
</g>
<!-- %5&#45;&gt;%13 -->
<g id="edge3" class="edge">
<title>%13&#45;&gt;%13</title>
<path fill="none" stroke="black" d="M276.45,-1082.9C272.04,-1069.99 266.75,-1054.46 261.98,-1040.5"/>
<polygon fill="black" stroke="black" points="265.01,-1039.53 258.47,-1031.2 258.39,-1041.79 265.01,-1039.53"/>
</g>
<!-- %17 -->
<g id="node5" class="node">
<title>%17</title>
<ellipse fill="none" stroke="black" cx="368.97" cy="-1001.35" rx="48.97" ry="28.99"/>
<text text-anchor="middle" x="368.97" y="-1004.55" font-family="Times,serif" font-size="14.00">SetqNode</text>
<text text-anchor="middle" x="368.97" y="-988.05" font-family="Times,serif" font-size="14.00">_tmp3</text>
</g>
<!-- %5&#45;&gt;%17 -->
<g id="edge4" class="edge">
<title>%17&#45;&gt;%17</title>
<path fill="none" stroke="black" d="M305.85,-1084.85C316.94,-1070.36 330.89,-1052.14 342.85,-1036.5"/>
<polygon fill="black" stroke="black" points="345.96,-1039.19 349.26,-1029.13 340.4,-1034.94 345.96,-1039.19"/>
</g>
<!-- %21 -->
<g id="node6" class="node">
<title>%21</title>
<ellipse fill="none" stroke="black" cx="913.97" cy="-1001.35" rx="48.28" ry="18"/>
<text text-anchor="middle" x="913.97" y="-996.3" font-family="Times,serif" font-size="14.00">ProgNode</text>
</g>
<!-- %5&#45;&gt;%21 -->
<g id="edge5" class="edge">
<title>%21&#45;&gt;%21</title>
<path fill="none" stroke="black" d="M333.69,-1102.59C448.47,-1082.77 739.38,-1032.51 860.15,-1011.65"/>
<polygon fill="black" stroke="black" points="860.69,-1014.94 869.95,-1009.79 859.5,-1008.04 860.69,-1014.94"/>
</g>
<!-- %25 -->
<g id="node7" class="node">
<title>%25</title>
<ellipse fill="none" stroke="black" cx="34.97" cy="-890.87" rx="34.97" ry="18"/>
<text text-anchor="middle" x="34.97" y="-885.82" font-family="Times,serif" font-size="14.00">_tmp2</text>
</g>
<!-- %9&#45;&gt;%25 -->
<g id="edge6" class="edge">
<title>%25&#45;&gt;%25</title>
<path fill="none" stroke="black" d="M109.61,-983.88C94.97,-965.83 71.34,-936.71 54.6,-916.06"/>
<polygon fill="black" stroke="black" points="56.91,-914.36 47.89,-908.79 51.47,-918.76 56.91,-914.36"/>
</g>
<!-- %29 -->
<g id="node8" class="node">
<title>%29</title>
<ellipse fill="none" stroke="black" cx="122.97" cy="-890.87" rx="34.97" ry="18"/>
<text text-anchor="middle" x="122.97" y="-885.82" font-family="Times,serif" font-size="14.00">_tmp3</text>
</g>
<!-- %9&#45;&gt;%29 -->
<g id="edge7" class="edge">
<title>%29&#45;&gt;%29</title>
<path fill="none" stroke="black" d="M122.97,-982.92C122.97,-966 122.97,-940.03 122.97,-920.14"/>
<polygon fill="black" stroke="black" points="126.47,-920.26 122.97,-910.26 119.47,-920.26 126.47,-920.26"/>
</g>
<!-- %33 -->
<g id="node9" class="node">
<title>%33</title>
<ellipse fill="none" stroke="black" cx="237.97" cy="-890.87" rx="61.59" ry="18"/>
<text text-anchor="middle" x="237.97" y="-885.82" font-family="Times,serif" font-size="14.00">LambdaNode</text>
</g>
<!-- %13&#45;&gt;%33 -->
<g id="edge8" class="edge">
<title>%33&#45;&gt;%33</title>
<path fill="none" stroke="black" d="M246.11,-972.13C244.48,-956.07 242.45,-936.01 240.82,-919.97"/>
<polygon fill="black" stroke="black" points="244.21,-919.71 239.72,-910.11 237.25,-920.41 244.21,-919.71"/>
<text text-anchor="middle" x="259.6" y="-941.06" font-family="Times,serif" font-size="14.00">value</text>
</g>
<!-- %57 -->
<g id="node15" class="node">
<title>%57</title>
<ellipse fill="none" stroke="black" cx="377.97" cy="-890.87" rx="45.21" ry="18"/>
<text text-anchor="middle" x="377.97" y="-885.82" font-family="Times,serif" font-size="14.00">ListNode</text>
</g>
<!-- %17&#45;&gt;%57 -->
<g id="edge14" class="edge">
<title>%57&#45;&gt;%57</title>
<path fill="none" stroke="black" d="M371.31,-972.13C372.65,-956.07 374.31,-936.01 375.64,-919.97"/>
<polygon fill="black" stroke="black" points="379.2,-920.36 376.54,-910.11 372.23,-919.79 379.2,-920.36"/>
<text text-anchor="middle" x="389.6" y="-941.06" font-family="Times,serif" font-size="14.00">value</text>
</g>
<!-- %77 -->
<g id="node20" class="node">
<title>%77</title>
<ellipse fill="none" stroke="black" cx="715.97" cy="-890.87" rx="45.21" ry="18"/>
<text text-anchor="middle" x="715.97" y="-885.82" font-family="Times,serif" font-size="14.00">ListNode</text>
</g>
<!-- %21&#45;&gt;%77 -->
<g id="edge19" class="edge">
<title>%77&#45;&gt;%77</title>
<path fill="none" stroke="black" d="M887.68,-985.95C852.58,-966.71 790.29,-932.59 751.16,-911.15"/>
<polygon fill="black" stroke="black" points="753.2,-907.73 742.75,-905.99 749.83,-913.87 753.2,-907.73"/>
<text text-anchor="middle" x="842.72" y="-941.06" font-family="Times,serif" font-size="14.00">locals</text>
</g>
<!-- %81 -->
<g id="node21" class="node">
<title>%81</title>
<ellipse fill="none" stroke="black" cx="846.97" cy="-890.87" rx="68.06" ry="28.99"/>
<text text-anchor="middle" x="846.97" y="-894.07" font-family="Times,serif" font-size="14.00">SetqNode</text>
<text text-anchor="middle" x="846.97" y="-877.57" font-family="Times,serif" font-size="14.00">reversedResult</text>
</g>
<!-- %21&#45;&gt;%81 -->
<g id="edge20" class="edge">
<title>%81&#45;&gt;%81</title>
<path fill="none" stroke="black" d="M903.5,-983.4C894.44,-968.72 881.01,-946.97 869.51,-928.36"/>
<polygon fill="black" stroke="black" points="872.11,-926.91 863.88,-920.25 866.16,-930.59 872.11,-926.91"/>
</g>
<!-- %85 -->
<g id="node22" class="node">
<title>%85</title>
<ellipse fill="none" stroke="black" cx="981.97" cy="-890.87" rx="48.97" ry="28.99"/>
<text text-anchor="middle" x="981.97" y="-894.07" font-family="Times,serif" font-size="14.00">SetqNode</text>
<text text-anchor="middle" x="981.97" y="-877.57" font-family="Times,serif" font-size="14.00">iterated</text>
</g>
<!-- %21&#45;&gt;%85 -->
<g id="edge21" class="edge">
<title>%85&#45;&gt;%85</title>
<path fill="none" stroke="black" d="M924.6,-983.4C933.93,-968.52 947.81,-946.37 959.58,-927.59"/>
<polygon fill="black" stroke="black" points="962.99,-929.74 965.34,-919.41 957.06,-926.02 962.99,-929.74"/>
</g>
<!-- %89 -->
<g id="node23" class="node">
<title>%89</title>
<ellipse fill="none" stroke="black" cx="1102.97" cy="-890.87" rx="53.91" ry="18"/>
<text text-anchor="middle" x="1102.97" y="-885.82" font-family="Times,serif" font-size="14.00">WhileNode</text>
</g>
<!-- %21&#45;&gt;%89 -->
<g id="edge22" class="edge">
<title>%89&#45;&gt;%89</title>
<path fill="none" stroke="black" d="M939.46,-985.72C972.39,-966.82 1029.9,-933.81 1067.19,-912.41"/>
<polygon fill="black" stroke="black" points="1068.74,-914.98 1075.68,-906.97 1065.26,-908.91 1068.74,-914.98"/>
</g>
<!-- %93 -->
<g id="node24" class="node">
<title>%93</title>
<ellipse fill="none" stroke="black" cx="1260.97" cy="-890.87" rx="55.96" ry="18"/>
<text text-anchor="middle" x="1260.97" y="-885.82" font-family="Times,serif" font-size="14.00">ReturnNode</text>
</g>
<!-- %21&#45;&gt;%93 -->
<g id="edge23" class="edge">
<title>%93&#45;&gt;%93</title>
<path fill="none" stroke="black" d="M950.13,-989.05C1012.54,-969.54 1140.58,-929.51 1211.3,-907.4"/>
<polygon fill="black" stroke="black" points="1212.23,-910.47 1220.73,-904.14 1210.14,-903.78 1212.23,-910.47"/>
</g>
<!-- %37 -->
<g id="node10" class="node">
<title>%37</title>
<ellipse fill="none" stroke="black" cx="63.97" cy="-780.39" rx="45.21" ry="18"/>
<text text-anchor="middle" x="63.97" y="-775.34" font-family="Times,serif" font-size="14.00">ListNode</text>
</g>
<!-- %33&#45;&gt;%37 -->
<g id="edge9" class="edge">
<title>%37&#45;&gt;%37</title>
<path fill="none" stroke="black" d="M212.67,-874.1C182,-854.97 130.25,-822.71 96.61,-801.73"/>
<polygon fill="black" stroke="black" points="98.97,-798.46 88.63,-796.14 95.26,-804.4 98.97,-798.46"/>
<text text-anchor="middle" x="181.85" y="-830.58" font-family="Times,serif" font-size="14.00">params</text>
</g>
<!-- %41 -->
<g id="node11" class="node">
<title>%41</title>
<ellipse fill="none" stroke="black" cx="193.97" cy="-780.39" rx="67" ry="28.99"/>
<text text-anchor="middle" x="193.97" y="-783.59" font-family="Times,serif" font-size="14.00">FuncCallNode</text>
<text text-anchor="middle" x="193.97" y="-767.09" font-family="Times,serif" font-size="14.00">times</text>
</g>
<!-- %33&#45;&gt;%41 -->
<g id="edge10" class="edge">
<title>%41&#45;&gt;%41</title>
<path fill="none" stroke="black" d="M231.1,-872.92C225.29,-858.61 216.76,-837.58 209.34,-819.29"/>
<polygon fill="black" stroke="black" points="212.25,-818.14 205.25,-810.18 205.76,-820.77 212.25,-818.14"/>
<text text-anchor="middle" x="232.47" y="-830.58" font-family="Times,serif" font-size="14.00">body</text>
</g>
<!-- %45 -->
<g id="node12" class="node">
<title>%45</title>
<ellipse fill="none" stroke="black" cx="63.97" cy="-669.91" rx="27" ry="18"/>
<text text-anchor="middle" x="63.97" y="-664.86" font-family="Times,serif" font-size="14.00">x</text>
</g>
<!-- %37&#45;&gt;%45 -->
<g id="edge11" class="edge">
<title>%45&#45;&gt;%45</title>
<path fill="none" stroke="black" d="M63.97,-761.96C63.97,-745.04 63.97,-719.06 63.97,-699.18"/>
<polygon fill="black" stroke="black" points="67.47,-699.29 63.97,-689.29 60.47,-699.29 67.47,-699.29"/>
</g>
<!-- %49 -->
<g id="node13" class="node">
<title>%49</title>
<ellipse fill="none" stroke="black" cx="164.97" cy="-669.91" rx="27" ry="18"/>
<text text-anchor="middle" x="164.97" y="-664.86" font-family="Times,serif" font-size="14.00">x</text>
</g>
<!-- %41&#45;&gt;%49 -->
<g id="edge12" class="edge">
<title>%49&#45;&gt;%49</title>
<path fill="none" stroke="black" d="M186.43,-751.17C182.07,-734.85 176.6,-714.4 172.28,-698.23"/>
<polygon fill="black" stroke="black" points="175.46,-697.58 169.5,-688.83 168.7,-699.39 175.46,-697.58"/>
<text text-anchor="middle" x="190.6" y="-720.1" font-family="Times,serif" font-size="14.00">arg</text>
</g>
<!-- %53 -->
<g id="node14" class="node">
<title>%53</title>
<ellipse fill="none" stroke="black" cx="236.97" cy="-669.91" rx="27" ry="18"/>
<text text-anchor="middle" x="236.97" y="-664.86" font-family="Times,serif" font-size="14.00">x</text>
</g>
<!-- %41&#45;&gt;%53 -->
<g id="edge13" class="edge">
<title>%53&#45;&gt;%53</title>
<path fill="none" stroke="black" d="M205.05,-751.45C211.62,-734.87 219.91,-713.96 226.39,-697.6"/>
<polygon fill="black" stroke="black" points="229.93,-699.18 230.36,-688.6 223.42,-696.6 229.93,-699.18"/>
<text text-anchor="middle" x="227.6" y="-720.1" font-family="Times,serif" font-size="14.00">arg</text>
</g>
<!-- %61 -->
<g id="node16" class="node">
<title>%61</title>
<ellipse fill="none" stroke="black" cx="305.97" cy="-780.39" rx="27" ry="18"/>
<text text-anchor="middle" x="305.97" y="-775.34" font-family="Times,serif" font-size="14.00">1</text>
</g>
<!-- %57&#45;&gt;%61 -->
<g id="edge15" class="edge">
<title>%61&#45;&gt;%61</title>
<path fill="none" stroke="black" d="M367.04,-873.39C355.22,-855.59 336.25,-827 322.58,-806.42"/>
<polygon fill="black" stroke="black" points="324.99,-804.71 316.54,-798.31 319.16,-808.58 324.99,-804.71"/>
</g>
<!-- %65 -->
<g id="node17" class="node">
<title>%65</title>
<ellipse fill="none" stroke="black" cx="377.97" cy="-780.39" rx="27" ry="18"/>
<text text-anchor="middle" x="377.97" y="-775.34" font-family="Times,serif" font-size="14.00">2</text>
</g>
<!-- %57&#45;&gt;%65 -->
<g id="edge16" class="edge">
<title>%65&#45;&gt;%65</title>
<path fill="none" stroke="black" d="M377.97,-872.44C377.97,-855.52 377.97,-829.54 377.97,-809.66"/>
<polygon fill="black" stroke="black" points="381.47,-809.77 377.97,-799.77 374.47,-809.77 381.47,-809.77"/>
</g>
<!-- %69 -->
<g id="node18" class="node">
<title>%69</title>
<ellipse fill="none" stroke="black" cx="449.97" cy="-780.39" rx="27" ry="18"/>
<text text-anchor="middle" x="449.97" y="-775.34" font-family="Times,serif" font-size="14.00">3</text>
</g>
<!-- %57&#45;&gt;%69 -->
<g id="edge17" class="edge">
<title>%69&#45;&gt;%69</title>
<path fill="none" stroke="black" d="M388.91,-873.39C400.73,-855.59 419.7,-827 433.36,-806.42"/>
<polygon fill="black" stroke="black" points="436.79,-808.58 439.41,-798.31 430.96,-804.71 436.79,-808.58"/>
</g>
<!-- %73 -->
<g id="node19" class="node">
<title>%73</title>
<ellipse fill="none" stroke="black" cx="521.97" cy="-780.39" rx="27" ry="18"/>
<text text-anchor="middle" x="521.97" y="-775.34" font-family="Times,serif" font-size="14.00">4</text>
</g>
<!-- %57&#45;&gt;%73 -->
<g id="edge18" class="edge">
<title>%73&#45;&gt;%73</title>
<path fill="none" stroke="black" d="M398.77,-874.56C420.59,-858.46 455.83,-832.33 485.97,-809.38 489.35,-806.81 492.89,-804.09 496.38,-801.39"/>
<polygon fill="black" stroke="black" points="498.06,-803.74 503.82,-794.84 493.77,-798.21 498.06,-803.74"/>
</g>
<!-- %97 -->
<g id="node25" class="node">
<title>%97</title>
<ellipse fill="none" stroke="black" cx="632.97" cy="-780.39" rx="65.68" ry="18"/>
<text text-anchor="middle" x="632.97" y="-775.34" font-family="Times,serif" font-size="14.00">reversedResult</text>
</g>
<!-- %77&#45;&gt;%97 -->
<g id="edge24" class="edge">
<title>%97&#45;&gt;%97</title>
<path fill="none" stroke="black" d="M703.37,-873.39C689.86,-855.74 668.24,-827.48 652.52,-806.93"/>
<polygon fill="black" stroke="black" points="654.83,-805.19 645.97,-799.38 649.27,-809.45 654.83,-805.19"/>
</g>
<!-- %101 -->
<g id="node26" class="node">
<title>%101</title>
<ellipse fill="none" stroke="black" cx="754.97" cy="-780.39" rx="38.56" ry="18"/>
<text text-anchor="middle" x="754.97" y="-775.34" font-family="Times,serif" font-size="14.00">iterated</text>
</g>
<!-- %77&#45;&gt;%101 -->
<g id="edge25" class="edge">
<title>%101&#45;&gt;%101</title>
<path fill="none" stroke="black" d="M722.07,-872.92C728.24,-855.75 737.89,-828.9 745.15,-808.72"/>
<polygon fill="black" stroke="black" points="748.7,-810.17 748.79,-799.58 742.12,-807.8 748.7,-810.17"/>
</g>
<!-- %105 -->
<g id="node27" class="node">
<title>%105</title>
<ellipse fill="none" stroke="black" cx="856.97" cy="-780.39" rx="45.21" ry="18"/>
<text text-anchor="middle" x="856.97" y="-775.34" font-family="Times,serif" font-size="14.00">ListNode</text>
</g>
<!-- %81&#45;&gt;%105 -->
<g id="edge26" class="edge">
<title>%105&#45;&gt;%105</title>
<path fill="none" stroke="black" d="M849.57,-861.65C851.06,-845.59 852.9,-825.53 854.38,-809.49"/>
<polygon fill="black" stroke="black" points="857.95,-809.91 855.38,-799.63 850.98,-809.26 857.95,-809.91"/>
<text text-anchor="middle" x="867.6" y="-830.58" font-family="Times,serif" font-size="14.00">value</text>
</g>
<!-- %109 -->
<g id="node28" class="node">
<title>%109</title>
<ellipse fill="none" stroke="black" cx="963.97" cy="-780.39" rx="34.97" ry="18"/>
<text text-anchor="middle" x="963.97" y="-775.34" font-family="Times,serif" font-size="14.00">_tmp3</text>
</g>
<!-- %85&#45;&gt;%109 -->
<g id="edge27" class="edge">
<title>%109&#45;&gt;%109</title>
<path fill="none" stroke="black" d="M977.29,-861.65C974.6,-845.43 971.23,-825.14 968.56,-809.02"/>
<polygon fill="black" stroke="black" points="971.92,-808.92 966.83,-799.63 965.02,-810.07 971.92,-808.92"/>
<text text-anchor="middle" x="989.6" y="-830.58" font-family="Times,serif" font-size="14.00">value</text>
</g>
<!-- %113 -->
<g id="node29" class="node">
<title>%113</title>
<ellipse fill="none" stroke="black" cx="1083.97" cy="-780.39" rx="67" ry="28.99"/>
<text text-anchor="middle" x="1083.97" y="-783.59" font-family="Times,serif" font-size="14.00">FuncCallNode</text>
<text text-anchor="middle" x="1083.97" y="-767.09" font-family="Times,serif" font-size="14.00">not</text>
</g>
<!-- %89&#45;&gt;%113 -->
<g id="edge28" class="edge">
<title>%113&#45;&gt;%113</title>
<path fill="none" stroke="black" d="M1099.92,-872.44C1097.47,-858.45 1093.94,-838.28 1090.82,-820.48"/>
<polygon fill="black" stroke="black" points="1094.12,-820.02 1088.95,-810.78 1087.22,-821.23 1094.12,-820.02"/>
<text text-anchor="middle" x="1108.1" y="-830.58" font-family="Times,serif" font-size="14.00">cond</text>
</g>
<!-- %117 -->
<g id="node30" class="node">
<title>%117</title>
<ellipse fill="none" stroke="black" cx="1216.97" cy="-780.39" rx="48.28" ry="18"/>
<text text-anchor="middle" x="1216.97" y="-775.34" font-family="Times,serif" font-size="14.00">ProgNode</text>
</g>
<!-- %89&#45;&gt;%117 -->
<g id="edge29" class="edge">
<title>%117&#45;&gt;%117</title>
<path fill="none" stroke="black" d="M1120.29,-873.39C1139.4,-855.21 1170.32,-825.78 1192.04,-805.11"/>
<polygon fill="black" stroke="black" points="1194.04,-808.09 1198.87,-798.66 1189.21,-803.02 1194.04,-808.09"/>
<text text-anchor="middle" x="1180.47" y="-830.58" font-family="Times,serif" font-size="14.00">body</text>
</g>
<!-- %177 -->
<g id="node45" class="node">
<title>%177</title>
<ellipse fill="none" stroke="black" cx="1603.97" cy="-780.39" rx="50.03" ry="28.99"/>
<text text-anchor="middle" x="1603.97" y="-783.59" font-family="Times,serif" font-size="14.00">ProgNode</text>
<text text-anchor="middle" x="1603.97" y="-767.09" font-family="Times,serif" font-size="14.00">inlined</text>
</g>
<!-- %93&#45;&gt;%177 -->
<g id="edge44" class="edge">
<title>%177&#45;&gt;%177</title>
<path fill="none" stroke="black" d="M1299.99,-877.53C1361.36,-858.12 1480.63,-820.4 1550.13,-798.42"/>
<polygon fill="black" stroke="black" points="1550.94,-801.52 1559.42,-795.16 1548.83,-794.84 1550.94,-801.52"/>
<text text-anchor="middle" x="1468.6" y="-830.58" font-family="Times,serif" font-size="14.00">value</text>
</g>
<!-- %121 -->
<g id="node31" class="node">
<title>%121</title>
<ellipse fill="none" stroke="black" cx="906.97" cy="-669.91" rx="67" ry="28.99"/>
<text text-anchor="middle" x="906.97" y="-673.11" font-family="Times,serif" font-size="14.00">FuncCallNode</text>
<text text-anchor="middle" x="906.97" y="-656.61" font-family="Times,serif" font-size="14.00">isempty</text>
</g>
<!-- %113&#45;&gt;%121 -->
<g id="edge30" class="edge">
<title>%121&#45;&gt;%121</title>
<path fill="none" stroke="black" d="M1041.32,-757.87C1027.25,-750.45 1011.64,-741.86 997.72,-733.4 981.47,-723.51 964.14,-711.87 949.03,-701.33"/>
<polygon fill="black" stroke="black" points="951.61,-698.16 941.42,-695.28 947.59,-703.89 951.61,-698.16"/>
<text text-anchor="middle" x="1006.6" y="-720.1" font-family="Times,serif" font-size="14.00">arg</text>
</g>
<!-- %129 -->
<g id="node33" class="node">
<title>%129</title>
<ellipse fill="none" stroke="black" cx="1036.97" cy="-669.91" rx="45.21" ry="18"/>
<text text-anchor="middle" x="1036.97" y="-664.86" font-family="Times,serif" font-size="14.00">ListNode</text>
</g>
<!-- %117&#45;&gt;%129 -->
<g id="edge32" class="edge">
<title>%129&#45;&gt;%129</title>
<path fill="none" stroke="black" d="M1192.32,-764.53C1160.73,-745.49 1105.82,-712.4 1070.46,-691.09"/>
<polygon fill="black" stroke="black" points="1072.41,-687.57 1062.04,-685.41 1068.8,-693.57 1072.41,-687.57"/>
<text text-anchor="middle" x="1153.72" y="-720.1" font-family="Times,serif" font-size="14.00">locals</text>
</g>
<!-- %133 -->
<g id="node34" class="node">
<title>%133</title>
<ellipse fill="none" stroke="black" cx="1148.97" cy="-669.91" rx="48.97" ry="28.99"/>
<text text-anchor="middle" x="1148.97" y="-673.11" font-family="Times,serif" font-size="14.00">SetqNode</text>
<text text-anchor="middle" x="1148.97" y="-656.61" font-family="Times,serif" font-size="14.00">item</text>
</g>
<!-- %117&#45;&gt;%133 -->
<g id="edge33" class="edge">
<title>%133&#45;&gt;%133</title>
<path fill="none" stroke="black" d="M1206.35,-762.44C1197.02,-747.55 1183.13,-725.4 1171.36,-706.62"/>
<polygon fill="black" stroke="black" points="1173.88,-705.06 1165.61,-698.44 1167.95,-708.77 1173.88,-705.06"/>
</g>
<!-- %137 -->
<g id="node35" class="node">
<title>%137</title>
<ellipse fill="none" stroke="black" cx="1283.97" cy="-669.91" rx="68.06" ry="28.99"/>
<text text-anchor="middle" x="1283.97" y="-673.11" font-family="Times,serif" font-size="14.00">SetqNode</text>
<text text-anchor="middle" x="1283.97" y="-656.61" font-family="Times,serif" font-size="14.00">reversedResult</text>
</g>
<!-- %117&#45;&gt;%137 -->
<g id="edge34" class="edge">
<title>%137&#45;&gt;%137</title>
<path fill="none" stroke="black" d="M1227.44,-762.44C1236.51,-747.76 1249.94,-726.01 1261.44,-707.4"/>
<polygon fill="black" stroke="black" points="1264.79,-709.63 1267.07,-699.28 1258.83,-705.95 1264.79,-709.63"/>
</g>
<!-- %141 -->
<g id="node36" class="node">
<title>%141</title>
<ellipse fill="none" stroke="black" cx="1421.97" cy="-669.91" rx="48.97" ry="28.99"/>
<text text-anchor="middle" x="1421.97" y="-673.11" font-family="Times,serif" font-size="14.00">SetqNode</text>
<text text-anchor="middle" x="1421.97" y="-656.61" font-family="Times,serif" font-size="14.00">iterated</text>
</g>
<!-- %117&#45;&gt;%141 -->
<g id="edge35" class="edge">
<title>%141&#45;&gt;%141</title>
<path fill="none" stroke="black" d="M1243.77,-765.21C1277.36,-747.43 1335.45,-716.69 1376.15,-695.15"/>
<polygon fill="black" stroke="black" points="1377.64,-697.8 1384.84,-690.02 1374.37,-691.61 1377.64,-697.8"/>
</g>
<!-- %125 -->
<g id="node32" class="node">
<title>%125</title>
<ellipse fill="none" stroke="black" cx="906.97" cy="-559.42" rx="38.56" ry="18"/>
<text text-anchor="middle" x="906.97" y="-554.37" font-family="Times,serif" font-size="14.00">iterated</text>
</g>
<!-- %121&#45;&gt;%125 -->
<g id="edge31" class="edge">
<title>%125&#45;&gt;%125</title>
<path fill="none" stroke="black" d="M906.97,-640.69C906.97,-624.62 906.97,-604.57 906.97,-588.52"/>
<polygon fill="black" stroke="black" points="910.47,-588.66 906.97,-578.66 903.47,-588.66 910.47,-588.66"/>
<text text-anchor="middle" x="915.6" y="-609.61" font-family="Times,serif" font-size="14.00">arg</text>
</g>
<!-- %145 -->
<g id="node37" class="node">
<title>%145</title>
<ellipse fill="none" stroke="black" cx="1034.97" cy="-559.42" rx="67" ry="28.99"/>
<text text-anchor="middle" x="1034.97" y="-562.62" font-family="Times,serif" font-size="14.00">FuncCallNode</text>
<text text-anchor="middle" x="1034.97" y="-546.12" font-family="Times,serif" font-size="14.00">head</text>
</g>
<!-- %133&#45;&gt;%145 -->
<g id="edge36" class="edge">
<title>%145&#45;&gt;%145</title>
<path fill="none" stroke="black" d="M1123.67,-644.83C1107.86,-629.78 1087.27,-610.19 1069.91,-593.67"/>
<polygon fill="black" stroke="black" points="1072.85,-591.68 1063.19,-587.32 1068.02,-596.75 1072.85,-591.68"/>
<text text-anchor="middle" x="1113.6" y="-609.61" font-family="Times,serif" font-size="14.00">value</text>
</g>
<!-- %153 -->
<g id="node39" class="node">
<title>%153</title>
<ellipse fill="none" stroke="black" cx="1271.97" cy="-559.42" rx="67" ry="28.99"/>
<text text-anchor="middle" x="1271.97" y="-562.62" font-family="Times,serif" font-size="14.00">FuncCallNode</text>
<text text-anchor="middle" x="1271.97" y="-546.12" font-family="Times,serif" font-size="14.00">cons</text>
</g>
<!-- %137&#45;&gt;%153 -->
<g id="edge38" class="edge">
<title>%153&#45;&gt;%153</title>
<path fill="none" stroke="black" d="M1280.85,-640.69C1279.46,-628.1 1277.8,-613.07 1276.29,-599.44"/>
<polygon fill="black" stroke="black" points="1279.7,-599.43 1275.12,-589.88 1272.74,-600.2 1279.7,-599.43"/>
<text text-anchor="middle" x="1293.6" y="-609.61" font-family="Times,serif" font-size="14.00">value</text>
</g>
<!-- %169 -->
<g id="node43" class="node">
<title>%169</title>
<ellipse fill="none" stroke="black" cx="1423.97" cy="-559.42" rx="67" ry="28.99"/>
<text text-anchor="middle" x="1423.97" y="-562.62" font-family="Times,serif" font-size="14.00">FuncCallNode</text>
<text text-anchor="middle" x="1423.97" y="-546.12" font-family="Times,serif" font-size="14.00">tail</text>
</g>
<!-- %141&#45;&gt;%169 -->
<g id="edge42" class="edge">
<title>%169&#45;&gt;%169</title>
<path fill="none" stroke="black" d="M1422.49,-640.69C1422.72,-628.23 1423,-613.37 1423.25,-599.84"/>
<polygon fill="black" stroke="black" points="1426.76,-599.94 1423.45,-589.88 1419.77,-599.81 1426.76,-599.94"/>
<text text-anchor="middle" x="1438.6" y="-609.61" font-family="Times,serif" font-size="14.00">value</text>
</g>
<!-- %149 -->
<g id="node38" class="node">
<title>%149</title>
<ellipse fill="none" stroke="black" cx="1032.97" cy="-448.94" rx="38.56" ry="18"/>
<text text-anchor="middle" x="1032.97" y="-443.89" font-family="Times,serif" font-size="14.00">iterated</text>
</g>
<!-- %145&#45;&gt;%149 -->
<g id="edge37" class="edge">
<title>%149&#45;&gt;%149</title>
<path fill="none" stroke="black" d="M1034.45,-530.2C1034.16,-514.14 1033.79,-494.08 1033.49,-478.04"/>
<polygon fill="black" stroke="black" points="1036.98,-478.11 1033.29,-468.18 1029.98,-478.24 1036.98,-478.11"/>
<text text-anchor="middle" x="1043.6" y="-499.13" font-family="Times,serif" font-size="14.00">arg</text>
</g>
<!-- %157 -->
<g id="node40" class="node">
<title>%157</title>
<ellipse fill="none" stroke="black" cx="1156.97" cy="-448.94" rx="67" ry="28.99"/>
<text text-anchor="middle" x="1156.97" y="-452.14" font-family="Times,serif" font-size="14.00">FuncCallNode</text>
<text text-anchor="middle" x="1156.97" y="-435.64" font-family="Times,serif" font-size="14.00">_tmp2</text>
</g>
<!-- %153&#45;&gt;%157 -->
<g id="edge39" class="edge">
<title>%157&#45;&gt;%157</title>
<path fill="none" stroke="black" d="M1244.72,-532.71C1229.08,-517.96 1209.27,-499.27 1192.43,-483.38"/>
<polygon fill="black" stroke="black" points="1195.11,-481.16 1185.43,-476.84 1190.3,-486.25 1195.11,-481.16"/>
<text text-anchor="middle" x="1230.6" y="-499.13" font-family="Times,serif" font-size="14.00">arg</text>
</g>
<!-- %161 -->
<g id="node41" class="node">
<title>%161</title>
<ellipse fill="none" stroke="black" cx="1307.97" cy="-448.94" rx="65.68" ry="18"/>
<text text-anchor="middle" x="1307.97" y="-443.89" font-family="Times,serif" font-size="14.00">reversedResult</text>
</g>
<!-- %153&#45;&gt;%161 -->
<g id="edge40" class="edge">
<title>%161&#45;&gt;%161</title>
<path fill="none" stroke="black" d="M1281.24,-530.49C1286.68,-514.11 1293.51,-493.51 1298.91,-477.25"/>
<polygon fill="black" stroke="black" points="1302.39,-478.86 1302.22,-468.27 1295.75,-476.66 1302.39,-478.86"/>
<text text-anchor="middle" x="1301.6" y="-499.13" font-family="Times,serif" font-size="14.00">arg</text>
</g>
<!-- %165 -->
<g id="node42" class="node">
<title>%165</title>
<ellipse fill="none" stroke="black" cx="1156.97" cy="-338.46" rx="27.81" ry="18"/>
<text text-anchor="middle" x="1156.97" y="-333.41" font-family="Times,serif" font-size="14.00">item</text>
</g>
<!-- %157&#45;&gt;%165 -->
<g id="edge41" class="edge">
<title>%165&#45;&gt;%165</title>
<path fill="none" stroke="black" d="M1156.97,-419.72C1156.97,-403.66 1156.97,-383.6 1156.97,-367.56"/>
<polygon fill="black" stroke="black" points="1160.47,-367.7 1156.97,-357.7 1153.47,-367.7 1160.47,-367.7"/>
<text text-anchor="middle" x="1165.6" y="-388.65" font-family="Times,serif" font-size="14.00">arg</text>
</g>
<!-- %173 -->
<g id="node44" class="node">
<title>%173</title>
<ellipse fill="none" stroke="black" cx="1429.97" cy="-448.94" rx="38.56" ry="18"/>
<text text-anchor="middle" x="1429.97" y="-443.89" font-family="Times,serif" font-size="14.00">iterated</text>
</g>
<!-- %169&#45;&gt;%173 -->
<g id="edge43" class="edge">
<title>%173&#45;&gt;%173</title>
<path fill="none" stroke="black" d="M1425.53,-530.2C1426.42,-514.14 1427.53,-494.08 1428.42,-478.04"/>
<polygon fill="black" stroke="black" points="1431.96,-478.36 1429.02,-468.18 1424.97,-477.97 1431.96,-478.36"/>
<text text-anchor="middle" x="1436.6" y="-499.13" font-family="Times,serif" font-size="14.00">arg</text>
</g>
<!-- %181 -->
<g id="node46" class="node">
<title>%181</title>
<ellipse fill="none" stroke="black" cx="1545.97" cy="-669.91" rx="45.21" ry="18"/>
<text text-anchor="middle" x="1545.97" y="-664.86" font-family="Times,serif" font-size="14.00">ListNode</text>
</g>
<!-- %177&#45;&gt;%181 -->
<g id="edge45" class="edge">
<title>%181&#45;&gt;%181</title>
<path fill="none" stroke="black" d="M1589.49,-752.29C1580.54,-735.56 1569.11,-714.18 1560.21,-697.53"/>
<polygon fill="black" stroke="black" points="1562.84,-696.03 1555.04,-688.86 1556.67,-699.33 1562.84,-696.03"/>
<text text-anchor="middle" x="1594.72" y="-720.1" font-family="Times,serif" font-size="14.00">locals</text>
</g>
<!-- %185 -->
<g id="node47" class="node">
<title>%185</title>
<ellipse fill="none" stroke="black" cx="1660.97" cy="-669.91" rx="48.97" ry="28.99"/>
<text text-anchor="middle" x="1660.97" y="-673.11" font-family="Times,serif" font-size="14.00">SetqNode</text>
<text text-anchor="middle" x="1660.97" y="-656.61" font-family="Times,serif" font-size="14.00">_tmp1</text>
</g>
<!-- %177&#45;&gt;%185 -->
<g id="edge46" class="edge">
<title>%185&#45;&gt;%185</title>
<path fill="none" stroke="black" d="M1618.21,-752.29C1625.35,-738.7 1634.1,-722.05 1641.82,-707.35"/>
<polygon fill="black" stroke="black" points="1645.17,-709.51 1646.72,-699.03 1638.97,-706.26 1645.17,-709.51"/>
</g>
<!-- %189 -->
<g id="node48" class="node">
<title>%189</title>
<ellipse fill="none" stroke="black" cx="1938.97" cy="-669.91" rx="48.28" ry="18"/>
<text text-anchor="middle" x="1938.97" y="-664.86" font-family="Times,serif" font-size="14.00">ProgNode</text>
</g>
<!-- %177&#45;&gt;%189 -->
<g id="edge47" class="edge">
<title>%189&#45;&gt;%189</title>
<path fill="none" stroke="black" d="M1647.08,-765.43C1710.53,-744.88 1828.51,-706.68 1893.36,-685.68"/>
<polygon fill="black" stroke="black" points="1894.24,-688.75 1902.68,-682.34 1892.08,-682.09 1894.24,-688.75"/>
</g>
<!-- %193 -->
<g id="node49" class="node">
<title>%193</title>
<ellipse fill="none" stroke="black" cx="1543.97" cy="-559.42" rx="34.97" ry="18"/>
<text text-anchor="middle" x="1543.97" y="-554.37" font-family="Times,serif" font-size="14.00">_tmp1</text>
</g>
<!-- %181&#45;&gt;%193 -->
<g id="edge48" class="edge">
<title>%193&#45;&gt;%193</title>
<path fill="none" stroke="black" d="M1545.65,-651.48C1545.34,-634.55 1544.86,-608.58 1544.49,-588.7"/>
<polygon fill="black" stroke="black" points="1547.98,-588.74 1544.29,-578.81 1540.98,-588.87 1547.98,-588.74"/>
</g>
<!-- %197 -->
<g id="node50" class="node">
<title>%197</title>
<ellipse fill="none" stroke="black" cx="1662.97" cy="-559.42" rx="65.68" ry="18"/>
<text text-anchor="middle" x="1662.97" y="-554.37" font-family="Times,serif" font-size="14.00">reversedResult</text>
</g>
<!-- %185&#45;&gt;%197 -->
<g id="edge49" class="edge">
<title>%197&#45;&gt;%197</title>
<path fill="none" stroke="black" d="M1661.49,-640.69C1661.79,-624.62 1662.16,-604.57 1662.46,-588.52"/>
<polygon fill="black" stroke="black" points="1665.97,-588.72 1662.66,-578.66 1658.97,-588.6 1665.97,-588.72"/>
<text text-anchor="middle" x="1677.6" y="-609.61" font-family="Times,serif" font-size="14.00">value</text>
</g>
<!-- %201 -->
<g id="node51" class="node">
<title>%201</title>
<ellipse fill="none" stroke="black" cx="1791.97" cy="-559.42" rx="45.21" ry="18"/>
<text text-anchor="middle" x="1791.97" y="-554.37" font-family="Times,serif" font-size="14.00">ListNode</text>
</g>
<!-- %189&#45;&gt;%201 -->
<g id="edge50" class="edge">
<title>%201&#45;&gt;%201</title>
<path fill="none" stroke="black" d="M1917.91,-653.36C1892.55,-634.65 1849.82,-603.11 1821.26,-582.03"/>
<polygon fill="black" stroke="black" points="1823.65,-578.71 1813.52,-575.59 1819.49,-584.34 1823.65,-578.71"/>
<text text-anchor="middle" x="1890.72" y="-609.61" font-family="Times,serif" font-size="14.00">locals</text>
</g>
<!-- %205 -->
<g id="node52" class="node">
<title>%205</title>
<ellipse fill="none" stroke="black" cx="1903.97" cy="-559.42" rx="48.97" ry="28.99"/>
<text text-anchor="middle" x="1903.97" y="-562.62" font-family="Times,serif" font-size="14.00">SetqNode</text>
<text text-anchor="middle" x="1903.97" y="-546.12" font-family="Times,serif" font-size="14.00">result</text>
</g>
<!-- %189&#45;&gt;%205 -->
<g id="edge51" class="edge">
<title>%205&#45;&gt;%205</title>
<path fill="none" stroke="black" d="M1933.5,-651.95C1928.91,-637.71 1922.17,-616.81 1916.28,-598.58"/>
<polygon fill="black" stroke="black" points="1919.34,-597.66 1912.94,-589.22 1912.68,-599.81 1919.34,-597.66"/>
</g>
<!-- %209 -->
<g id="node53" class="node">
<title>%209</title>
<ellipse fill="none" stroke="black" cx="2019.97" cy="-559.42" rx="48.97" ry="28.99"/>
<text text-anchor="middle" x="2019.97" y="-562.62" font-family="Times,serif" font-size="14.00">SetqNode</text>
<text text-anchor="middle" x="2019.97" y="-546.12" font-family="Times,serif" font-size="14.00">iterated</text>
</g>
<!-- %189&#45;&gt;%209 -->
<g id="edge52" class="edge">
<title>%209&#45;&gt;%209</title>
<path fill="none" stroke="black" d="M1951.28,-652.43C1962.58,-637.28 1979.72,-614.34 1994.04,-595.15"/>
<polygon fill="black" stroke="black" points="1997.43,-597.47 2000.6,-587.36 1991.82,-593.28 1997.43,-597.47"/>
</g>
<!-- %213 -->
<g id="node54" class="node">
<title>%213</title>
<ellipse fill="none" stroke="black" cx="2140.97" cy="-559.42" rx="53.91" ry="18"/>
<text text-anchor="middle" x="2140.97" y="-554.37" font-family="Times,serif" font-size="14.00">WhileNode</text>
</g>
<!-- %189&#45;&gt;%213 -->
<g id="edge53" class="edge">
<title>%213&#45;&gt;%213</title>
<path fill="none" stroke="black" d="M1965.8,-654.5C2001.22,-635.48 2063.76,-601.89 2103.74,-580.42"/>
<polygon fill="black" stroke="black" points="2105.24,-583.05 2112.39,-575.24 2101.92,-576.88 2105.24,-583.05"/>
</g>
<!-- %217 -->
<g id="node55" class="node">
<title>%217</title>
<ellipse fill="none" stroke="black" cx="2315.97" cy="-559.42" rx="55.96" ry="18"/>
<text text-anchor="middle" x="2315.97" y="-554.37" font-family="Times,serif" font-size="14.00">ReturnNode</text>
</g>
<!-- %189&#45;&gt;%217 -->
<g id="edge54" class="edge">
<title>%217&#45;&gt;%217</title>
<path fill="none" stroke="black" d="M1976.5,-658.11C2044.45,-638.55 2187.93,-597.27 2264.8,-575.15"/>
<polygon fill="black" stroke="black" points="2265.55,-578.29 2274.19,-572.16 2263.61,-571.56 2265.55,-578.29"/>
</g>
<!-- %221 -->
<g id="node56" class="node">
<title>%221</title>
<ellipse fill="none" stroke="black" cx="1708.97" cy="-448.94" rx="31.39" ry="18"/>
<text text-anchor="middle" x="1708.97" y="-443.89" font-family="Times,serif" font-size="14.00">result</text>
</g>
<!-- %201&#45;&gt;%221 -->
<g id="edge55" class="edge">
<title>%221&#45;&gt;%221</title>
<path fill="none" stroke="black" d="M1779.37,-541.95C1765.62,-523.98 1743.48,-495.03 1727.7,-474.41"/>
<polygon fill="black" stroke="black" points="1730.01,-472.68 1721.16,-466.86 1724.45,-476.93 1730.01,-472.68"/>
</g>
<!-- %225 -->
<g id="node57" class="node">
<title>%225</title>
<ellipse fill="none" stroke="black" cx="1796.97" cy="-448.94" rx="38.56" ry="18"/>
<text text-anchor="middle" x="1796.97" y="-443.89" font-family="Times,serif" font-size="14.00">iterated</text>
</g>
<!-- %201&#45;&gt;%225 -->
<g id="edge56" class="edge">
<title>%225&#45;&gt;%225</title>
<path fill="none" stroke="black" d="M1792.78,-540.99C1793.56,-524.07 1794.75,-498.1 1795.67,-478.21"/>
<polygon fill="black" stroke="black" points="1799.21,-478.48 1796.17,-468.33 1792.22,-478.15 1799.21,-478.48"/>
</g>
<!-- %229 -->
<g id="node58" class="node">
<title>%229</title>
<ellipse fill="none" stroke="black" cx="1903.97" cy="-448.94" rx="45.21" ry="18"/>
<text text-anchor="middle" x="1903.97" y="-443.89" font-family="Times,serif" font-size="14.00">ListNode</text>
</g>
<!-- %205&#45;&gt;%229 -->
<g id="edge57" class="edge">
<title>%229&#45;&gt;%229</title>
<path fill="none" stroke="black" d="M1903.97,-530.2C1903.97,-514.14 1903.97,-494.08 1903.97,-478.04"/>
<polygon fill="black" stroke="black" points="1907.47,-478.18 1903.97,-468.18 1900.47,-478.18 1907.47,-478.18"/>
<text text-anchor="middle" x="1918.6" y="-499.13" font-family="Times,serif" font-size="14.00">value</text>
</g>
<!-- %233 -->
<g id="node59" class="node">
<title>%233</title>
<ellipse fill="none" stroke="black" cx="2010.97" cy="-448.94" rx="34.97" ry="18"/>
<text text-anchor="middle" x="2010.97" y="-443.89" font-family="Times,serif" font-size="14.00">_tmp1</text>
</g>
<!-- %209&#45;&gt;%233 -->
<g id="edge58" class="edge">
<title>%233&#45;&gt;%233</title>
<path fill="none" stroke="black" d="M2017.63,-530.2C2016.3,-514.14 2014.64,-494.08 2013.3,-478.04"/>
<polygon fill="black" stroke="black" points="2016.72,-477.86 2012.4,-468.18 2009.74,-478.43 2016.72,-477.86"/>
<text text-anchor="middle" x="2031.6" y="-499.13" font-family="Times,serif" font-size="14.00">value</text>
</g>
<!-- %237 -->
<g id="node60" class="node">
<title>%237</title>
<ellipse fill="none" stroke="black" cx="2130.97" cy="-448.94" rx="67" ry="28.99"/>
<text text-anchor="middle" x="2130.97" y="-452.14" font-family="Times,serif" font-size="14.00">FuncCallNode</text>
<text text-anchor="middle" x="2130.97" y="-435.64" font-family="Times,serif" font-size="14.00">not</text>
</g>
<!-- %213&#45;&gt;%237 -->
<g id="edge59" class="edge">
<title>%237&#45;&gt;%237</title>
<path fill="none" stroke="black" d="M2139.37,-540.99C2138.08,-527.01 2136.22,-506.84 2134.58,-489.03"/>
<polygon fill="black" stroke="black" points="2137.99,-488.97 2133.59,-479.33 2131.02,-489.61 2137.99,-488.97"/>
<text text-anchor="middle" x="2150.1" y="-499.13" font-family="Times,serif" font-size="14.00">cond</text>
</g>
<!-- %241 -->
<g id="node61" class="node">
<title>%241</title>
<ellipse fill="none" stroke="black" cx="2263.97" cy="-448.94" rx="48.28" ry="18"/>
<text text-anchor="middle" x="2263.97" y="-443.89" font-family="Times,serif" font-size="14.00">ProgNode</text>
</g>
<!-- %213&#45;&gt;%241 -->
<g id="edge60" class="edge">
<title>%241&#45;&gt;%241</title>
<path fill="none" stroke="black" d="M2159.39,-542.18C2180.16,-523.86 2214.11,-493.92 2237.67,-473.14"/>
<polygon fill="black" stroke="black" points="2239.65,-476.18 2244.83,-466.94 2235.02,-470.93 2239.65,-476.18"/>
<text text-anchor="middle" x="2223.47" y="-499.13" font-family="Times,serif" font-size="14.00">body</text>
</g>
<!-- %289 -->
<g id="node73" class="node">
<title>%289</title>
<ellipse fill="none" stroke="black" cx="2361.97" cy="-448.94" rx="31.39" ry="18"/>
<text text-anchor="middle" x="2361.97" y="-443.89" font-family="Times,serif" font-size="14.00">result</text>
</g>
<!-- %217&#45;&gt;%289 -->
<g id="edge72" class="edge">
<title>%289&#45;&gt;%289</title>
<path fill="none" stroke="black" d="M2323.16,-541.47C2330.52,-524.12 2342.07,-496.89 2350.65,-476.64"/>
<polygon fill="black" stroke="black" points="2354.15,-478.34 2354.84,-467.77 2347.71,-475.61 2354.15,-478.34"/>
<text text-anchor="middle" x="2356.6" y="-499.13" font-family="Times,serif" font-size="14.00">value</text>
</g>
<!-- %245 -->
<g id="node62" class="node">
<title>%245</title>
<ellipse fill="none" stroke="black" cx="2069.97" cy="-338.46" rx="67" ry="28.99"/>
<text text-anchor="middle" x="2069.97" y="-341.66" font-family="Times,serif" font-size="14.00">FuncCallNode</text>
<text text-anchor="middle" x="2069.97" y="-325.16" font-family="Times,serif" font-size="14.00">isempty</text>
</g>
<!-- %237&#45;&gt;%245 -->
<g id="edge61" class="edge">
<title>%245&#45;&gt;%245</title>
<path fill="none" stroke="black" d="M2115.42,-420.28C2107.97,-407.02 2098.93,-390.95 2090.88,-376.63"/>
<polygon fill="black" stroke="black" points="2093.45,-375.06 2085.5,-368.06 2087.35,-378.49 2093.45,-375.06"/>
<text text-anchor="middle" x="2113.6" y="-388.65" font-family="Times,serif" font-size="14.00">arg</text>
</g>
<!-- %253 -->
<g id="node64" class="node">
<title>%253</title>
<ellipse fill="none" stroke="black" cx="2199.97" cy="-338.46" rx="45.21" ry="18"/>
<text text-anchor="middle" x="2199.97" y="-333.41" font-family="Times,serif" font-size="14.00">ListNode</text>
</g>
<!-- %241&#45;&gt;%253 -->
<g id="edge63" class="edge">
<title>%253&#45;&gt;%253</title>
<path fill="none" stroke="black" d="M2253.97,-430.99C2243.64,-413.47 2227.38,-385.91 2215.4,-365.6"/>
<polygon fill="black" stroke="black" points="2218,-364.12 2209.9,-357.29 2211.97,-367.68 2218,-364.12"/>
<text text-anchor="middle" x="2251.72" y="-388.65" font-family="Times,serif" font-size="14.00">locals</text>
</g>
<!-- %257 -->
<g id="node65" class="node">
<title>%257</title>
<ellipse fill="none" stroke="black" cx="2311.97" cy="-338.46" rx="48.97" ry="28.99"/>
<text text-anchor="middle" x="2311.97" y="-341.66" font-family="Times,serif" font-size="14.00">SetqNode</text>
<text text-anchor="middle" x="2311.97" y="-325.16" font-family="Times,serif" font-size="14.00">result</text>
</g>
<!-- %241&#45;&gt;%257 -->
<g id="edge64" class="edge">
<title>%257&#45;&gt;%257</title>
<path fill="none" stroke="black" d="M2271.47,-430.99C2277.88,-416.51 2287.33,-395.16 2295.49,-376.71"/>
<polygon fill="black" stroke="black" points="2299.02,-378.39 2299.86,-367.83 2292.61,-375.56 2299.02,-378.39"/>
</g>
<!-- %261 -->
<g id="node66" class="node">
<title>%261</title>
<ellipse fill="none" stroke="black" cx="2436.97" cy="-338.46" rx="48.97" ry="28.99"/>
<text text-anchor="middle" x="2436.97" y="-341.66" font-family="Times,serif" font-size="14.00">SetqNode</text>
<text text-anchor="middle" x="2436.97" y="-325.16" font-family="Times,serif" font-size="14.00">iterated</text>
</g>
<!-- %241&#45;&gt;%261 -->
<g id="edge65" class="edge">
<title>%261&#45;&gt;%261</title>
<path fill="none" stroke="black" d="M2288.03,-432.86C2315.61,-415.56 2361.33,-386.89 2394.85,-365.87"/>
<polygon fill="black" stroke="black" points="2396.34,-368.44 2402.96,-360.16 2392.62,-362.51 2396.34,-368.44"/>
</g>
<!-- %249 -->
<g id="node63" class="node">
<title>%249</title>
<ellipse fill="none" stroke="black" cx="2069.97" cy="-227.97" rx="38.56" ry="18"/>
<text text-anchor="middle" x="2069.97" y="-222.92" font-family="Times,serif" font-size="14.00">iterated</text>
</g>
<!-- %245&#45;&gt;%249 -->
<g id="edge62" class="edge">
<title>%249&#45;&gt;%249</title>
<path fill="none" stroke="black" d="M2069.97,-309.24C2069.97,-293.17 2069.97,-273.12 2069.97,-257.07"/>
<polygon fill="black" stroke="black" points="2073.47,-257.21 2069.97,-247.21 2066.47,-257.21 2073.47,-257.21"/>
<text text-anchor="middle" x="2078.6" y="-278.17" font-family="Times,serif" font-size="14.00">arg</text>
</g>
<!-- %265 -->
<g id="node67" class="node">
<title>%265</title>
<ellipse fill="none" stroke="black" cx="2290.97" cy="-227.97" rx="67" ry="28.99"/>
<text text-anchor="middle" x="2290.97" y="-231.17" font-family="Times,serif" font-size="14.00">FuncCallNode</text>
<text text-anchor="middle" x="2290.97" y="-214.67" font-family="Times,serif" font-size="14.00">cons</text>
</g>
<!-- %257&#45;&gt;%265 -->
<g id="edge66" class="edge">
<title>%265&#45;&gt;%265</title>
<path fill="none" stroke="black" d="M2306.51,-309.24C2304.06,-296.56 2301.12,-281.39 2298.46,-267.67"/>
<polygon fill="black" stroke="black" points="2301.75,-267.2 2296.41,-258.05 2294.87,-268.54 2301.75,-267.2"/>
<text text-anchor="middle" x="2317.6" y="-278.17" font-family="Times,serif" font-size="14.00">value</text>
</g>
<!-- %281 -->
<g id="node71" class="node">
<title>%281</title>
<ellipse fill="none" stroke="black" cx="2442.97" cy="-227.97" rx="67" ry="28.99"/>
<text text-anchor="middle" x="2442.97" y="-231.17" font-family="Times,serif" font-size="14.00">FuncCallNode</text>
<text text-anchor="middle" x="2442.97" y="-214.67" font-family="Times,serif" font-size="14.00">tail</text>
</g>
<!-- %261&#45;&gt;%281 -->
<g id="edge70" class="edge">
<title>%281&#45;&gt;%281</title>
<path fill="none" stroke="black" d="M2438.53,-309.24C2439.22,-296.78 2440.05,-281.92 2440.79,-268.4"/>
<polygon fill="black" stroke="black" points="2444.34,-268.61 2441.4,-258.43 2437.35,-268.22 2444.34,-268.61"/>
<text text-anchor="middle" x="2454.6" y="-278.17" font-family="Times,serif" font-size="14.00">value</text>
</g>
<!-- %269 -->
<g id="node68" class="node">
<title>%269</title>
<ellipse fill="none" stroke="black" cx="2206.97" cy="-117.49" rx="67" ry="28.99"/>
<text text-anchor="middle" x="2206.97" y="-120.69" font-family="Times,serif" font-size="14.00">FuncCallNode</text>
<text text-anchor="middle" x="2206.97" y="-104.19" font-family="Times,serif" font-size="14.00">head</text>
</g>
<!-- %265&#45;&gt;%269 -->
<g id="edge67" class="edge">
<title>%269&#45;&gt;%269</title>
<path fill="none" stroke="black" d="M2270.21,-200.16C2259.41,-186.21 2246.06,-168.97 2234.42,-153.93"/>
<polygon fill="black" stroke="black" points="2236.68,-152.14 2227.79,-146.37 2231.14,-156.42 2236.68,-152.14"/>
<text text-anchor="middle" x="2263.6" y="-167.68" font-family="Times,serif" font-size="14.00">arg</text>
</g>
<!-- %273 -->
<g id="node69" class="node">
<title>%273</title>
<ellipse fill="none" stroke="black" cx="2322.97" cy="-117.49" rx="31.39" ry="18"/>
<text text-anchor="middle" x="2322.97" y="-112.44" font-family="Times,serif" font-size="14.00">result</text>
</g>
<!-- %265&#45;&gt;%273 -->
<g id="edge68" class="edge">
<title>%273&#45;&gt;%273</title>
<path fill="none" stroke="black" d="M2299.3,-198.75C2304.08,-182.53 2310.07,-162.24 2314.82,-146.12"/>
<polygon fill="black" stroke="black" points="2318.42,-147.31 2317.89,-136.73 2311.7,-145.33 2318.42,-147.31"/>
<text text-anchor="middle" x="2317.6" y="-167.68" font-family="Times,serif" font-size="14.00">arg</text>
</g>
<!-- %277 -->
<g id="node70" class="node">
<title>%277</title>
<ellipse fill="none" stroke="black" cx="2206.97" cy="-18" rx="38.56" ry="18"/>
<text text-anchor="middle" x="2206.97" y="-12.95" font-family="Times,serif" font-size="14.00">iterated</text>
</g>
<!-- %269&#45;&gt;%277 -->
<g id="edge69" class="edge">
<title>%277&#45;&gt;%277</title>
<path fill="none" stroke="black" d="M2206.97,-88.03C2206.97,-75.21 2206.97,-60.11 2206.97,-47.3"/>
<polygon fill="black" stroke="black" points="2210.47,-47.32 2206.97,-37.32 2203.47,-47.32 2210.47,-47.32"/>
<text text-anchor="middle" x="2215.6" y="-57.2" font-family="Times,serif" font-size="14.00">arg</text>
</g>
<!-- %285 -->
<g id="node72" class="node">
<title>%285</title>
<ellipse fill="none" stroke="black" cx="2442.97" cy="-117.49" rx="38.56" ry="18"/>
<text text-anchor="middle" x="2442.97" y="-112.44" font-family="Times,serif" font-size="14.00">iterated</text>
</g>
<!-- %281&#45;&gt;%285 -->
<g id="edge71" class="edge">
<title>%285&#45;&gt;%285</title>
<path fill="none" stroke="black" d="M2442.97,-198.75C2442.97,-182.69 2442.97,-162.63 2442.97,-146.59"/>
<polygon fill="black" stroke="black" points="2446.47,-146.73 2442.97,-136.73 2439.47,-146.73 2446.47,-146.73"/>
<text text-anchor="middle" x="2451.6" y="-167.68" font-family="Times,serif" font-size="14.00">arg</text>
</g>
</g>
</svg>
