<?xml version="1.0" encoding="UTF-8" standalone="no"?>
<!DOCTYPE svg PUBLIC "-//W3C//DTD SVG 1.1//EN"
 "http://www.w3.org/Graphics/SVG/1.1/DTD/svg11.dtd">
<!-- Generated by graphviz version 8.1.0 (20230707.0739)
 -->
<!-- Title: ast Pages: 1 -->
<svg width="142pt" height="227pt"
 viewBox="0.00 0.00 142.00 227.48" xmlns="http://www.w3.org/2000/svg" xmlns:xlink="http://www.w3.org/1999/xlink">
<g id="graph0" class="graph" transform="scale(1 1) rotate(0) translate(4 223.48)">
<title>ast</title>
<polygon fill="white" stroke="none" points="-4,4 -4,-223.48 138,-223.48 138,4 -4,4"/>
<!-- %3 -->
<g id="node1" class="node">
<title>%3</title>
<ellipse fill="none" stroke="black" cx="67" cy="-201.48" rx="42.65" ry="18"/>
<text text-anchor="middle" x="67" y="-196.43" font-family="Times,serif" font-size="14.00">program</text>
</g>
<!-- %5 -->
<g id="node2" class="node">
<title>%5</title>
<ellipse fill="none" stroke="black" cx="67" cy="-117.49" rx="67" ry="28.99"/>
<text text-anchor="middle" x="67" y="-120.69" font-family="Times,serif" font-size="14.00">FuncCallNode</text>
<text text-anchor="middle" x="67" y="-104.19" font-family="Times,serif" font-size="14.00">unknown</text>
</g>
<!-- %3&#45;&gt;%5 -->
<g id="edge1" class="edge">
<title>%5&#45;&gt;%5</title>
<path fill="none" stroke="black" d="M67,-183.09C67,-175.61 67,-166.53 67,-157.57"/>
<polygon fill="black" stroke="black" points="70.5,-157.82 67,-147.82 63.5,-157.82 70.5,-157.82"/>
</g>
<!-- %9 -->
<g id="node3" class="node">
<title>%9</title>
<ellipse fill="none" stroke="black" cx="67" cy="-18" rx="27" ry="18"/>
<text text-anchor="middle" x="67" y="-12.95" font-family="Times,serif" font-size="14.00">4</text>
</g>
<!-- %5&#45;&gt;%9 -->
<g id="edge2" class="edge">
<title>%9&#45;&gt;%9</title>
<path fill="none" stroke="black" d="M67,-88.03C67,-75.21 67,-60.11 67,-47.3"/>
<polygon fill="black" stroke="black" points="70.5,-47.32 67,-37.32 63.5,-47.32 70.5,-47.32"/>
<text text-anchor="middle" x="75.62" y="-57.2" font-family="Times,serif" font-size="14.00">arg</text>
</g>
</g>
</svg>
